<svg width="1280" height="720" xmlns="http://www.w3.org/2000/svg" xmlns:xlink="http://www.w3.org/1999/xlink" overflow="hidden"><defs><clipPath id="clip0"><rect x="0" y="0" width="1280" height="720"/></clipPath><clipPath id="clip1"><rect x="887" y="73" width="323" height="203"/></clipPath><clipPath id="clip2"><rect x="887" y="112" width="323" height="203"/></clipPath><clipPath id="clip3"><rect x="887" y="151" width="323" height="203"/></clipPath><clipPath id="clip4"><rect x="887" y="190" width="323" height="203"/></clipPath><clipPath id="clip5"><rect x="887" y="229" width="323" height="202"/></clipPath><clipPath id="clip6"><rect x="887" y="268" width="323" height="202"/></clipPath><clipPath id="clip7"><rect x="887" y="307" width="323" height="202"/></clipPath><clipPath id="clip8"><rect x="887" y="346" width="323" height="202"/></clipPath><clipPath id="clip9"><rect x="887" y="385" width="323" height="202"/></clipPath><clipPath id="clip10"><rect x="887" y="424" width="323" height="202"/></clipPath><clipPath id="clip11"><rect x="887" y="462" width="323" height="203"/></clipPath><clipPath id="clip12"><rect x="25" y="141" width="324" height="180"/></clipPath><clipPath id="clip13"><rect x="25" y="179" width="324" height="181"/></clipPath><clipPath id="clip14"><rect x="25" y="218" width="324" height="181"/></clipPath><clipPath id="clip15"><rect x="25" y="257" width="324" height="181"/></clipPath><clipPath id="clip16"><rect x="25" y="296" width="324" height="180"/></clipPath></defs><g clip-path="url(#clip0)"><rect x="0" y="0" width="1280" height="720" fill="#FFFFFF"/><path d="M448.5 84.5001 772.5 84.5001 772.5 658.499 718.499 712.5 448.5 712.5Z" fill="#F2F2F2" fill-rule="evenodd"/><path d="M718.499 712.5 729.299 669.299 772.5 658.499Z" fill="#C3C3C3" fill-rule="evenodd"/><path d="M718.499 712.5 729.299 669.299 772.5 658.499 718.499 712.5 448.5 712.5 448.5 84.5001 772.5 84.5001 772.5 658.499" stroke="#2F528F" stroke-width="1.33333" stroke-miterlimit="8" fill="none" fill-rule="evenodd"/><path d="M460.5 165.622C590.5 175.333 590.5 155.911 720.486 155.911L720.486 105.431 460.5 105.431ZM481.92 105.431 481.92 98.8862 740.13 98.8862 740.13 149.683C730.315 149.683 720.486 150.035 720.486 150.035L720.486 105.431ZM502.053 98.8862 502.053 92.5001 762.5 92.5001 762.5 143.139C751.315 143.139 740.13 143.402 740.13 143.402L740.13 98.8862Z" fill="#DAE3F3" fill-rule="evenodd"/><path d="M460.5 105.431 720.486 105.431 720.486 155.911C590.5 155.911 590.5 175.333 460.5 165.622ZM481.92 105.431 481.92 98.8862 740.13 98.8862 740.13 149.683C730.315 149.683 720.486 150.035 720.486 150.035M502.053 98.8862 502.053 92.5001 762.5 92.5001 762.5 143.139C751.315 143.139 740.13 143.402 740.13 143.402" stroke="#000000" stroke-width="1.33333" stroke-miterlimit="8" fill="none" fill-rule="evenodd"/><text font-family="Times New Roman,Times New Roman_MSFontService,sans-serif" font-weight="700" font-size="19" transform="translate(524.681 131)">Preparation and <tspan font-size="19" x="-55.6534" y="20">Benchmarking of Base System</tspan></text><path d="M619.4 172 619.4 183.5 625 183.5 611 195 597 183.5 602.6 183.5 602.6 172Z" fill="#AAAAAA" fill-rule="evenodd"/><path d="M486.5 199.5 736.5 199.5 736.5 249.221C611.5 249.221 611.5 268.165 486.5 257.401Z" stroke="#000000" stroke-width="1.33333" stroke-miterlimit="8" fill="#FFFFFF" fill-rule="evenodd"/><text font-family="Times New Roman,Times New Roman_MSFontService,sans-serif" font-weight="700" font-size="19" transform="translate(492.29 220)">Supercell according to doping <tspan font-size="19" x="63.88" y="20">concentration</tspan></text><path d="M619.4 265 619.4 277 625 277 611 289 597 277 602.6 277 602.6 265Z" fill="#AAAAAA" fill-rule="evenodd"/><path d="M508.5 293.5 714.5 293.5 714.5 334.399C611.5 334.399 611.5 349.983 508.5 341.128Z" stroke="#000000" stroke-width="1.33333" stroke-miterlimit="8" fill="#FFFFFF" fill-rule="evenodd"/><text font-family="Times New Roman,Times New Roman_MSFontService,sans-serif" font-weight="700" font-size="19" transform="translate(530.266 319)">Make P<tspan font-size="19" x="61.6867" y="0">-</tspan><tspan font-size="19" x="67.9" y="0">1 symmetry</tspan></text><path d="M619.4 348 619.4 359.5 625 359.5 611 371 597 359.5 602.6 359.5 602.6 348Z" fill="#AAAAAA" fill-rule="evenodd"/><path d="M474.5 410 611.5 375.5 748.5 410 611.5 444.5Z" stroke="#000000" stroke-width="1.33333" stroke-miterlimit="8" fill="#FFE699" fill-rule="evenodd"/><text font-family="Times New Roman,Times New Roman_MSFontService,sans-serif" font-weight="700" font-size="19" transform="translate(558.5 405)">Dope Crystal <tspan font-size="19" x="14.44" y="20">Structure</tspan></text><path d="M619.4 448 619.4 459.5 625 459.5 611 471 597 459.5 602.6 459.5 602.6 448Z" fill="#AAAAAA" fill-rule="evenodd"/><path d="M486.5 475.5 736.5 475.5 736.5 526.023C611.5 526.023 611.5 545.273 486.5 534.335Z" stroke="#000000" stroke-width="1.33333" stroke-miterlimit="8" fill="#FFFFFF" fill-rule="evenodd"/><text font-family="Times New Roman,Times New Roman_MSFontService,sans-serif" font-weight="700" font-size="19" transform="translate(502.497 506)">Find and impose symmetry</text><path d="M619.4 542 619.4 553.5 625 553.5 611 565 597 553.5 602.6 553.5 602.6 542Z" fill="#AAAAAA" fill-rule="evenodd"/><path d="M486.5 569.5 736.5 569.5 736.5 619.221C611.5 619.221 611.5 638.165 486.5 627.401Z" stroke="#000000" stroke-width="1.33333" stroke-miterlimit="8" fill="#FFFF00" fill-rule="evenodd"/><text font-family="Times New Roman,Times New Roman_MSFontService,sans-serif" font-weight="700" font-size="19" transform="translate(505.52 590)">Atleast<tspan font-size="19" x="60.6467" y="0">irreducible_IBZ</tspan><tspan font-size="19" x="194.613" y="0">k</tspan>-<tspan font-size="19" x="71.24" y="20">points&gt;4</tspan></text><path d="M619.4 635 619.4 647 625 647 611 659 597 647 602.6 647 602.6 635Z" fill="#AAAAAA" fill-rule="evenodd"/><path d="M526.5 663.5 696.5 663.5 696.5 697.182C611.5 697.182 611.5 710.015 526.5 702.723Z" stroke="#000000" stroke-width="1.33333" stroke-miterlimit="8" fill="#C5E0B4" fill-rule="evenodd"/><text font-family="Times New Roman,Times New Roman_MSFontService,sans-serif" font-weight="700" font-size="19" transform="translate(570.853 685)">BoltzTrap<tspan fill="#898989" font-family="Calibri,Calibri_MSFontService,sans-serif" font-weight="400" font-size="16" x="-473.253" y="7">01</tspan><tspan fill="#898989" font-family="Calibri,Calibri_MSFontService,sans-serif" font-weight="400" font-size="16" x="-456.92" y="7">-</tspan><tspan fill="#898989" font-family="Calibri,Calibri_MSFontService,sans-serif" font-weight="400" font-size="16" x="-452.086" y="7">09</tspan><tspan fill="#898989" font-family="Calibri,Calibri_MSFontService,sans-serif" font-weight="400" font-size="16" x="-435.753" y="7">-</tspan><tspan fill="#898989" font-family="Calibri,Calibri_MSFontService,sans-serif" font-weight="400" font-size="16" x="-430.92" y="7">2021</tspan><tspan fill="#898989" font-family="Calibri,Calibri_MSFontService,sans-serif" font-weight="400" font-size="16" x="603.247" y="7">7</tspan></text><rect x="26.5001" y="9.50005" width="1218" height="68" stroke="#000000" stroke-width="1.33333" stroke-miterlimit="8" fill="#F2F2F2"/><path d="M35.4082 38.4203 416.315 38.4203 416.315 77.4203 35.4082 77.4203Z" fill="#00FF00" fill-rule="evenodd"/><text font-family="Calibri,Calibri_MSFontService,sans-serif" font-weight="700" font-size="32" transform="translate(35.4082 34)">1 Year Work for making DFT approach (CASTEP, Dmol<tspan font-size="21" x="698.98" y="-10">3</tspan><tspan font-size="32" x="709.813" y="0">) workflow for doping studies from </tspan><tspan fill="#FF0000" font-size="32" x="0" y="35">crystal structure to ZT factor </tspan>for less than 1000 atoms</text><path d="M887.142 155.26 1209.48 155.26 1209.48 194.193 887.142 194.193Z" fill="#548235" fill-rule="evenodd"/><path d="M887.142 194.193 1209.48 194.193 1209.48 233.126 887.142 233.126Z" fill="#E2F0D9" fill-rule="evenodd"/><path d="M887.142 233.126 1209.48 233.126 1209.48 272.06 887.142 272.06Z" fill="#E2F0D9" fill-rule="evenodd"/><path d="M887.142 272.06 1209.48 272.06 1209.48 310.993 887.142 310.993Z" fill="#E2F0D9" fill-rule="evenodd"/><path d="M887.142 310.993 1209.48 310.993 1209.48 349.926 887.142 349.926Z" fill="#E2F0D9" fill-rule="evenodd"/><path d="M887.142 349.926 1209.48 349.926 1209.48 388.859 887.142 388.859Z" fill="#E2F0D9" fill-rule="evenodd"/><path d="M887.142 388.859 1209.48 388.859 1209.48 427.793 887.142 427.793Z" fill="#E2F0D9" fill-rule="evenodd"/><path d="M887.142 427.793 1209.48 427.793 1209.48 466.726 887.142 466.726Z" fill="#E2F0D9" fill-rule="evenodd"/><path d="M887.142 466.726 1209.48 466.726 1209.48 505.66 887.142 505.66Z" fill="#E2F0D9" fill-rule="evenodd"/><path d="M887.142 505.66 1209.48 505.66 1209.48 544.593 887.142 544.593Z" fill="#E2F0D9" fill-rule="evenodd"/><path d="M887.142 544.593 1209.48 544.593 1209.48 583.526 887.142 583.526Z" fill="#E2F0D9" fill-rule="evenodd"/><path d="M886.475 194.193 1210.15 194.193" stroke="#000000" stroke-width="1.33333" stroke-linejoin="round" stroke-miterlimit="10" fill="none" fill-rule="evenodd"/><path d="M887.142 154.593 887.142 584.193" stroke="#000000" stroke-width="1.33333" stroke-linejoin="round" stroke-miterlimit="10" fill="none" fill-rule="evenodd"/><path d="M1209.48 154.593 1209.48 584.193" stroke="#000000" stroke-width="1.33333" stroke-linejoin="round" stroke-miterlimit="10" fill="none" fill-rule="evenodd"/><path d="M886.475 155.26 1210.15 155.26" stroke="#000000" stroke-width="1.33333" stroke-linejoin="round" stroke-miterlimit="10" fill="none" fill-rule="evenodd"/><path d="M886.475 583.526 1210.15 583.526" stroke="#000000" stroke-width="1.33333" stroke-linejoin="round" stroke-miterlimit="10" fill="none" fill-rule="evenodd"/><g clip-path="url(#clip1)"><text fill="#FFFFFF" font-family="Times New Roman,Times New Roman_MSFontService,sans-serif" font-weight="700" font-size="24" transform="translate(896.742 183)">Key Parameters</text></g><g clip-path="url(#clip2)"><text font-family="Times New Roman,Times New Roman_MSFontService,sans-serif" font-weight="400" font-size="24" transform="translate(896.742 222)">Crystal structure parameters</text></g><g clip-path="url(#clip3)"><text font-family="Times New Roman,Times New Roman_MSFontService,sans-serif" font-weight="400" font-size="24" transform="translate(896.742 261)">Band Gap</text></g><g clip-path="url(#clip4)"><text font-family="Times New Roman,Times New Roman_MSFontService,sans-serif" font-weight="400" font-size="24" transform="translate(896.742 300)">DOS</text></g><g clip-path="url(#clip5)"><text font-family="Times New Roman,Times New Roman_MSFontService,sans-serif" font-weight="400" font-size="24" transform="translate(896.742 339)">m* </text></g><text font-family="Times New Roman,Times New Roman_MSFontService,sans-serif" font-weight="400" font-size="16" transform="translate(933.408 344)">h/e                                 <tspan font-size="24" x="151.667" y="-5">n</tspan><tspan font-size="16" x="169.667" y="0">h/e</tspan></text><g clip-path="url(#clip6)"><text font-family="Times New Roman,Times New Roman_MSFontService,sans-serif" font-weight="400" font-size="24" transform="translate(896.742 378)">Phonon </text></g><text font-family="Times New Roman,Times New Roman_MSFontService,sans-serif" font-weight="400" font-size="24" transform="translate(976.075 378)">–<tspan font-size="24" x="18" y="0">DOS and Dispersion</tspan></text><g clip-path="url(#clip7)"><text font-family="Times New Roman,Times New Roman_MSFontService,sans-serif" font-weight="400" font-size="24" transform="translate(896.742 417)">K</text></g><text font-family="Times New Roman,Times New Roman_MSFontService,sans-serif" font-weight="400" font-size="16" transform="translate(914.075 422)">total<tspan font-size="24" x="28.6667" y="-5">= </tspan><tspan font-size="24" x="48.1667" y="-5">K</tspan><tspan font-size="16" x="65.5" y="0">el</tspan><tspan font-size="24" x="83.1667" y="-5">+ K</tspan><tspan font-size="16" x="120" y="0">ph</tspan></text><g clip-path="url(#clip8)"><text font-family="Times New Roman,Times New Roman_MSFontService,sans-serif" font-weight="400" font-size="24" transform="translate(896.742 456)">S</text></g><g clip-path="url(#clip9)"><text font-family="Times New Roman,Times New Roman_MSFontService,sans-serif" font-weight="400" font-size="24" transform="translate(896.742 495)">σ</text></g><g clip-path="url(#clip10)"><text font-family="Times New Roman,Times New Roman_MSFontService,sans-serif" font-weight="400" font-size="24" transform="translate(896.742 533)">ZT</text></g><g clip-path="url(#clip11)"><text font-family="Times New Roman,Times New Roman_MSFontService,sans-serif" font-weight="400" font-size="24" transform="translate(896.742 572)">Fermi</text></g><text font-family="Times New Roman,Times New Roman_MSFontService,sans-serif" font-weight="400" font-size="24" transform="translate(954.075 572)">-Dirac Topology</text><path d="M25.8082 213.002 348.146 213.002 348.146 251.935 25.8082 251.935Z" fill="#C55A11" fill-rule="evenodd"/><path d="M25.8082 251.935 348.146 251.935 348.146 290.869 25.8082 290.869Z" fill="#FBE5D6" fill-rule="evenodd"/><path d="M25.8082 290.869 348.146 290.869 348.146 329.802 25.8082 329.802Z" fill="#FBE5D6" fill-rule="evenodd"/><path d="M25.8082 329.802 348.146 329.802 348.146 368.735 25.8082 368.735Z" fill="#FBE5D6" fill-rule="evenodd"/><path d="M25.8082 368.735 348.146 368.735 348.146 407.669 25.8082 407.669Z" fill="#FBE5D6" fill-rule="evenodd"/><path d="M25.1415 251.935 348.813 251.935" stroke="#000000" stroke-width="1.33333" stroke-linejoin="round" stroke-miterlimit="10" fill="none" fill-rule="evenodd"/><path d="M25.8082 212.335 25.8082 408.335" stroke="#000000" stroke-width="1.33333" stroke-linejoin="round" stroke-miterlimit="10" fill="none" fill-rule="evenodd"/><path d="M348.146 212.335 348.146 408.335" stroke="#000000" stroke-width="1.33333" stroke-linejoin="round" stroke-miterlimit="10" fill="none" fill-rule="evenodd"/><path d="M25.1415 213.002 348.813 213.002" stroke="#000000" stroke-width="1.33333" stroke-linejoin="round" stroke-miterlimit="10" fill="none" fill-rule="evenodd"/><path d="M25.1415 407.669 348.813 407.669" stroke="#000000" stroke-width="1.33333" stroke-linejoin="round" stroke-miterlimit="10" fill="none" fill-rule="evenodd"/><g clip-path="url(#clip12)"><text fill="#FFFFFF" font-family="Times New Roman,Times New Roman_MSFontService,sans-serif" font-weight="700" font-size="21" transform="translate(35.4082 239)">Experimental Justification</text></g><g clip-path="url(#clip13)"><text font-family="Times New Roman,Times New Roman_MSFontService,sans-serif" font-weight="400" font-size="21" transform="translate(35.4082 278)">Raman Spectrum (190</text></g><text font-family="Times New Roman,Times New Roman_MSFontService,sans-serif" font-weight="400" font-size="21" transform="translate(227.742 278)">-<tspan font-size="21" x="7.16666" y="0">3000 cm</tspan><tspan font-size="14" x="81.3333" y="-6">-</tspan><tspan font-size="14" x="86" y="-6">1</tspan><tspan font-size="21" x="93.1667" y="0">)</tspan></text><g clip-path="url(#clip14)"><text font-family="Times New Roman,Times New Roman_MSFontService,sans-serif" font-weight="400" font-size="21" transform="translate(35.4082 317)">XRD</text></g><g clip-path="url(#clip15)"><text font-family="Times New Roman,Times New Roman_MSFontService,sans-serif" font-weight="400" font-size="21" transform="translate(35.4082 356)">UV</text></g><text font-family="Times New Roman,Times New Roman_MSFontService,sans-serif" font-weight="400" font-size="21" transform="translate(64.1149 356)">-<tspan font-size="21" x="7.16667" y="0">Vis NIR (190</tspan><tspan font-size="21" x="122.053" y="0">-</tspan><tspan font-size="21" x="129.22" y="0">3200nm) </tspan></text><g clip-path="url(#clip16)"><text font-family="Times New Roman,Times New Roman_MSFontService,sans-serif" font-weight="400" font-size="21" transform="translate(35.4082 395)">PL spectra (0</text></g><text font-family="Times New Roman,Times New Roman_MSFontService,sans-serif" font-weight="400" font-size="21" transform="translate(148.615 395)">-<tspan font-size="21" x="7.16667" y="0">800nm)</tspan></text></g></svg>