<svg width="1280" height="720" xmlns="http://www.w3.org/2000/svg" xmlns:xlink="http://www.w3.org/1999/xlink" overflow="hidden"><defs><clipPath id="clip0"><rect x="0" y="0" width="1280" height="720"/></clipPath><clipPath id="clip1"><rect x="14" y="17" width="81" height="152"/></clipPath><clipPath id="clip2"><rect x="94" y="17" width="131" height="152"/></clipPath><clipPath id="clip3"><rect x="521" y="17" width="264" height="152"/></clipPath><clipPath id="clip4"><rect x="784" y="17" width="255" height="152"/></clipPath></defs><g clip-path="url(#clip0)"><rect x="0" y="0" width="1280" height="720" fill="#FFFFFF"/><text font-family="Calibri Light,Calibri Light_MSFontService,sans-serif" font-weight="700" font-size="48" transform="translate(9.6 54)">What is best for Mg<tspan font-size="32" x="370.773" y="11">2</tspan><tspan font-size="48" x="386.773" y="0">Si</tspan>-p type doping?</text><path d="M14.9048 81.7128 94.7682 81.7128 94.7682 104.129 14.9048 104.129Z" fill="#D9D9D9" fill-rule="evenodd"/><path d="M94.7682 81.7128 224.547 81.7128 224.547 104.129 94.7682 104.129Z" fill="#D9D9D9" fill-rule="evenodd"/><path d="M224.547 81.7128 396.983 81.7128 396.983 104.129 224.547 104.129Z" fill="#D9D9D9" fill-rule="evenodd"/><path d="M396.983 81.7128 521.539 81.7128 521.539 104.129 396.983 104.129Z" fill="#D9D9D9" fill-rule="evenodd"/><path d="M521.539 81.7128 784.84 81.7128 784.84 104.129 521.539 104.129Z" fill="#D9D9D9" fill-rule="evenodd"/><path d="M784.84 81.7128 1038.16 81.7128 1038.16 104.129 784.84 104.129Z" fill="#D9D9D9" fill-rule="evenodd"/><path d="M14.9048 104.129 94.7682 104.129 94.7682 171.376 14.9048 171.376Z" fill="#F2F2F2" fill-rule="evenodd"/><path d="M14.9048 171.376 94.7682 171.376 94.7682 238.623 14.9048 238.623Z" fill="#92D050" fill-rule="evenodd"/><path d="M94.7682 171.376 224.547 171.376 224.547 193.791 94.7682 193.791Z" fill="#92D050" fill-rule="evenodd"/><path d="M224.547 171.376 396.983 171.376 396.983 193.791 224.547 193.791Z" fill="#92D050" fill-rule="evenodd"/><path d="M396.983 171.376 521.539 171.376 521.539 193.791 396.983 193.791Z" fill="#92D050" fill-rule="evenodd"/><path d="M521.539 171.376 784.84 171.376 784.84 193.791 521.539 193.791Z" fill="#92D050" fill-rule="evenodd"/><path d="M784.84 171.376 1038.16 171.376 1038.16 193.791 784.84 193.791Z" fill="#92D050" fill-rule="evenodd"/><path d="M14.9048 238.623 94.7682 238.623 94.7682 305.87 14.9048 305.87Z" fill="#FFFF00" fill-rule="evenodd"/><path d="M94.7682 238.623 224.547 238.623 224.547 261.039 94.7682 261.039Z" fill="#FFFF00" fill-rule="evenodd"/><path d="M224.547 238.623 396.983 238.623 396.983 261.039 224.547 261.039Z" fill="#FFFF00" fill-rule="evenodd"/><path d="M396.983 238.623 521.539 238.623 521.539 261.039 396.983 261.039Z" fill="#FFFF00" fill-rule="evenodd"/><path d="M521.539 238.623 784.84 238.623 784.84 261.039 521.539 261.039Z" fill="#FFFF00" fill-rule="evenodd"/><path d="M784.84 238.623 1038.16 238.623 1038.16 261.039 784.84 261.039Z" fill="#FFFF00" fill-rule="evenodd"/><path d="M14.9048 305.87 94.7682 305.87 94.7682 373.117 14.9048 373.117Z" fill="#FFFF00" fill-rule="evenodd"/><path d="M94.7682 305.87 224.547 305.87 224.547 328.286 94.7682 328.286Z" fill="#FFFF00" fill-rule="evenodd"/><path d="M224.547 305.87 396.983 305.87 396.983 328.286 224.547 328.286Z" fill="#FFFF00" fill-rule="evenodd"/><path d="M396.983 305.87 521.539 305.87 521.539 328.286 396.983 328.286Z" fill="#FFFF00" fill-rule="evenodd"/><path d="M521.539 305.87 784.84 305.87 784.84 328.286 521.539 328.286Z" fill="#FFFF00" fill-rule="evenodd"/><path d="M784.84 305.87 1038.16 305.87 1038.16 328.286 784.84 328.286Z" fill="#FFFF00" fill-rule="evenodd"/><path d="M14.9048 373.117 94.7682 373.117 94.7682 440.365 14.9048 440.365Z" fill="#F2F2F2" fill-rule="evenodd"/><path d="M14.9048 440.365 94.7682 440.365 94.7682 507.612 14.9048 507.612Z" fill="#F2F2F2" fill-rule="evenodd"/><path d="M14.9048 507.612 94.7682 507.612 94.7682 574.859 14.9048 574.859Z" fill="#F2F2F2" fill-rule="evenodd"/><path d="M14.9048 574.859 94.7682 574.859 94.7682 642.106 14.9048 642.106Z" fill="#F2F2F2" fill-rule="evenodd"/><path d="M14.9048 642.106 94.7682 642.106 94.7682 709.354 14.9048 709.354Z" fill="#F2F2F2" fill-rule="evenodd"/><path d="M94.7682 81.0461 94.7682 710.02" stroke="#000000" stroke-width="1.33333" stroke-linejoin="round" stroke-miterlimit="10" fill="none" fill-rule="evenodd"/><path d="M224.547 81.0461 224.547 710.02" stroke="#000000" stroke-width="1.33333" stroke-linejoin="round" stroke-miterlimit="10" fill="none" fill-rule="evenodd"/><path d="M396.983 81.0461 396.983 710.02" stroke="#000000" stroke-width="1.33333" stroke-linejoin="round" stroke-miterlimit="10" fill="none" fill-rule="evenodd"/><path d="M521.539 81.0461 521.539 710.02" stroke="#000000" stroke-width="1.33333" stroke-linejoin="round" stroke-miterlimit="10" fill="none" fill-rule="evenodd"/><path d="M784.84 81.0461 784.84 710.02" stroke="#000000" stroke-width="1.33333" stroke-linejoin="round" stroke-miterlimit="10" fill="none" fill-rule="evenodd"/><path d="M14.2381 104.129 1038.82 104.129" stroke="#000000" stroke-width="1.33333" stroke-linejoin="round" stroke-miterlimit="10" fill="none" fill-rule="evenodd"/><path d="M94.1015 126.544 1038.82 126.544" stroke="#000000" stroke-width="1.33333" stroke-linejoin="round" stroke-miterlimit="10" fill="none" fill-rule="evenodd"/><path d="M94.1015 148.96 1038.82 148.96" stroke="#000000" stroke-width="1.33333" stroke-linejoin="round" stroke-miterlimit="10" fill="none" fill-rule="evenodd"/><path d="M14.2381 171.376 1038.82 171.376" stroke="#000000" stroke-width="1.33333" stroke-linejoin="round" stroke-miterlimit="10" fill="none" fill-rule="evenodd"/><path d="M94.1015 193.791 1038.82 193.791" stroke="#000000" stroke-width="1.33333" stroke-linejoin="round" stroke-miterlimit="10" fill="none" fill-rule="evenodd"/><path d="M94.1015 216.207 1038.82 216.207" stroke="#000000" stroke-width="1.33333" stroke-linejoin="round" stroke-miterlimit="10" fill="none" fill-rule="evenodd"/><path d="M14.2381 238.623 1038.82 238.623" stroke="#000000" stroke-width="1.33333" stroke-linejoin="round" stroke-miterlimit="10" fill="none" fill-rule="evenodd"/><path d="M94.1015 261.039 1038.82 261.039" stroke="#000000" stroke-width="1.33333" stroke-linejoin="round" stroke-miterlimit="10" fill="none" fill-rule="evenodd"/><path d="M94.1015 283.454 1038.82 283.454" stroke="#000000" stroke-width="1.33333" stroke-linejoin="round" stroke-miterlimit="10" fill="none" fill-rule="evenodd"/><path d="M14.2381 305.87 1038.82 305.87" stroke="#000000" stroke-width="1.33333" stroke-linejoin="round" stroke-miterlimit="10" fill="none" fill-rule="evenodd"/><path d="M94.1015 328.286 1038.82 328.286" stroke="#000000" stroke-width="1.33333" stroke-linejoin="round" stroke-miterlimit="10" fill="none" fill-rule="evenodd"/><path d="M94.1015 350.702 1038.82 350.702" stroke="#000000" stroke-width="1.33333" stroke-linejoin="round" stroke-miterlimit="10" fill="none" fill-rule="evenodd"/><path d="M14.2381 373.117 1038.82 373.117" stroke="#000000" stroke-width="1.33333" stroke-linejoin="round" stroke-miterlimit="10" fill="none" fill-rule="evenodd"/><path d="M94.1015 395.533 1038.82 395.533" stroke="#000000" stroke-width="1.33333" stroke-linejoin="round" stroke-miterlimit="10" fill="none" fill-rule="evenodd"/><path d="M94.1015 417.949 1038.82 417.949" stroke="#000000" stroke-width="1.33333" stroke-linejoin="round" stroke-miterlimit="10" fill="none" fill-rule="evenodd"/><path d="M14.2381 440.365 1038.82 440.365" stroke="#000000" stroke-width="1.33333" stroke-linejoin="round" stroke-miterlimit="10" fill="none" fill-rule="evenodd"/><path d="M94.1015 462.78 1038.82 462.78" stroke="#000000" stroke-width="1.33333" stroke-linejoin="round" stroke-miterlimit="10" fill="none" fill-rule="evenodd"/><path d="M94.1015 485.196 1038.82 485.196" stroke="#000000" stroke-width="1.33333" stroke-linejoin="round" stroke-miterlimit="10" fill="none" fill-rule="evenodd"/><path d="M14.2381 507.612 1038.82 507.612" stroke="#000000" stroke-width="1.33333" stroke-linejoin="round" stroke-miterlimit="10" fill="none" fill-rule="evenodd"/><path d="M94.1015 530.028 1038.82 530.028" stroke="#000000" stroke-width="1.33333" stroke-linejoin="round" stroke-miterlimit="10" fill="none" fill-rule="evenodd"/><path d="M94.1015 552.443 1038.82 552.443" stroke="#000000" stroke-width="1.33333" stroke-linejoin="round" stroke-miterlimit="10" fill="none" fill-rule="evenodd"/><path d="M14.2381 574.859 1038.82 574.859" stroke="#000000" stroke-width="1.33333" stroke-linejoin="round" stroke-miterlimit="10" fill="none" fill-rule="evenodd"/><path d="M94.1015 597.275 1038.82 597.275" stroke="#000000" stroke-width="1.33333" stroke-linejoin="round" stroke-miterlimit="10" fill="none" fill-rule="evenodd"/><path d="M94.1015 619.691 1038.82 619.691" stroke="#000000" stroke-width="1.33333" stroke-linejoin="round" stroke-miterlimit="10" fill="none" fill-rule="evenodd"/><path d="M14.2381 642.106 1038.82 642.106" stroke="#000000" stroke-width="1.33333" stroke-linejoin="round" stroke-miterlimit="10" fill="none" fill-rule="evenodd"/><path d="M94.1015 664.522 1038.82 664.522" stroke="#000000" stroke-width="1.33333" stroke-linejoin="round" stroke-miterlimit="10" fill="none" fill-rule="evenodd"/><path d="M94.1015 686.938 1038.82 686.938" stroke="#000000" stroke-width="1.33333" stroke-linejoin="round" stroke-miterlimit="10" fill="none" fill-rule="evenodd"/><path d="M14.9048 81.0461 14.9048 710.02" stroke="#000000" stroke-width="1.33333" stroke-linejoin="round" stroke-miterlimit="10" fill="none" fill-rule="evenodd"/><path d="M1038.16 81.0461 1038.16 710.02" stroke="#000000" stroke-width="1.33333" stroke-linejoin="round" stroke-miterlimit="10" fill="none" fill-rule="evenodd"/><path d="M14.2381 81.7128 1038.82 81.7128" stroke="#000000" stroke-width="1.33333" stroke-linejoin="round" stroke-miterlimit="10" fill="none" fill-rule="evenodd"/><path d="M14.2381 709.354 1038.82 709.354" stroke="#000000" stroke-width="1.33333" stroke-linejoin="round" stroke-miterlimit="10" fill="none" fill-rule="evenodd"/><g clip-path="url(#clip1)"><text font-family="Times New Roman,Times New Roman_MSFontService,sans-serif" font-weight="700" font-size="18" transform="translate(19.8365 100)">Impurity</text></g><g clip-path="url(#clip2)"><text font-family="Times New Roman,Times New Roman_MSFontService,sans-serif" font-weight="700" font-size="18" transform="translate(99.9074 100)">Occupation site</text></g><text font-family="Times New Roman,Times New Roman_MSFontService,sans-serif" font-weight="700" font-size="18" transform="translate(239.845 100)">Conductivity Type<tspan font-size="18" x="200.166" y="0">a (Å)</tspan></text><g clip-path="url(#clip3)"><text font-family="Times New Roman,Times New Roman_MSFontService,sans-serif" font-weight="700" font-size="18" transform="translate(528.353 100)">Formation energy per atom (eV)</text></g><g clip-path="url(#clip4)"><text font-family="Times New Roman,Times New Roman_MSFontService,sans-serif" font-weight="700" font-size="18" transform="translate(787.912 100)">Site Occupation probability (%)</text></g><text font-family="Times New Roman,Times New Roman_MSFontService,sans-serif" font-weight="700" font-size="18" transform="translate(43.8365 144)">Ag<tspan font-weight="400" font-size="18" x="87.0709" y="-22">Mg Site</tspan><tspan font-weight="400" font-size="18" x="262.428" y="-22">p</tspan><tspan font-weight="400" font-size="18" x="395.175" y="-22">6.348</tspan><tspan font-weight="400" font-size="18" x="589.103" y="-22">0.525</tspan><tspan font-weight="400" font-size="18" x="858.662" y="-22">87</tspan><tspan font-weight="400" font-size="18" x="92.0709" y="0">Si Site</tspan><tspan font-weight="400" font-size="18" x="262.428" y="0">n</tspan><tspan font-weight="400" font-size="18" x="395.175" y="0">6.358</tspan><tspan font-weight="400" font-size="18" x="604.853" y="0">1</tspan><tspan font-weight="400" font-size="18" x="863.162" y="0">1</tspan><tspan font-weight="400" font-size="18" x="62.5709" y="23">Interstitial Site</tspan><tspan font-weight="400" font-size="18" x="262.428" y="23">p</tspan><tspan font-weight="400" font-size="18" x="395.175" y="23">6.359</tspan><tspan font-weight="400" font-size="18" x="589.103" y="23">0.675</tspan><tspan font-weight="400" font-size="18" x="858.662" y="23">12</tspan><tspan font-size="18" x="2.49995" y="68">Li</tspan><tspan font-weight="400" font-size="18" x="87.0709" y="45">Mg Site</tspan><tspan font-weight="400" font-size="18" x="262.428" y="45">p</tspan><tspan font-weight="400" font-size="18" x="395.175" y="45">6.348</tspan><tspan font-weight="400" font-size="18" x="586.103" y="45">-</tspan><tspan font-weight="400" font-size="18" x="592.103" y="45">0.008</tspan><tspan font-weight="400" font-size="18" x="858.662" y="45">55</tspan><tspan font-weight="400" font-size="18" x="92.0709" y="68">Si Site</tspan><tspan font-weight="400" font-size="18" x="262.428" y="68">n</tspan><tspan font-weight="400" font-size="18" x="395.175" y="68">6.357</tspan><tspan font-weight="400" font-size="18" x="589.103" y="68">2.283</tspan><tspan font-weight="400" font-size="18" x="863.162" y="68">0</tspan><tspan font-weight="400" font-size="18" x="62.5709" y="90">Interstitial Site</tspan><tspan font-weight="400" font-size="18" x="262.428" y="90">n</tspan><tspan font-weight="400" font-size="18" x="395.175" y="90">6.353</tspan><tspan font-weight="400" font-size="18" x="586.103" y="90">-</tspan><tspan font-weight="400" font-size="18" x="592.103" y="90">0.067</tspan><tspan font-weight="400" font-size="18" x="858.662" y="90">45</tspan><tspan font-size="18" x="0" y="135">Na</tspan><tspan font-weight="400" font-size="18" x="87.0709" y="112">Mg Site</tspan><tspan font-weight="400" font-size="18" x="262.428" y="112">p</tspan><tspan font-weight="400" font-size="18" x="395.175" y="112">6.358</tspan><tspan font-weight="400" font-size="18" x="589.103" y="112">0.633</tspan><tspan font-weight="400" font-size="18" x="858.662" y="112">82</tspan><tspan font-weight="400" font-size="18" x="92.0709" y="135">Si Site</tspan><tspan font-weight="400" font-size="18" x="262.428" y="135">n</tspan><tspan font-weight="400" font-size="18" x="395.175" y="135">6.369</tspan><tspan font-weight="400" font-size="18" x="589.103" y="135">3.592</tspan><tspan font-weight="400" font-size="18" x="863.162" y="135">0</tspan><tspan font-weight="400" font-size="18" x="62.5709" y="157">Interstitial Site</tspan><tspan font-weight="400" font-size="18" x="262.428" y="157">n</tspan><tspan font-weight="400" font-size="18" x="395.175" y="157">6.362</tspan><tspan font-weight="400" font-size="18" x="589.103" y="157">0.733</tspan><tspan font-weight="400" font-size="18" x="858.662" y="157">18</tspan><tspan font-size="18" x="4" y="202">K</tspan><tspan font-weight="400" font-size="18" x="87.0709" y="180">Mg Site</tspan><tspan font-weight="400" font-size="18" x="262.428" y="180">p</tspan><tspan font-weight="400" font-size="18" x="395.175" y="180">6.370</tspan><tspan font-weight="400" font-size="18" x="598.103" y="180">1.4</tspan><tspan font-weight="400" font-size="18" x="858.662" y="180">88</tspan><tspan font-weight="400" font-size="18" x="92.0709" y="202">Si Site</tspan><tspan font-weight="400" font-size="18" x="262.428" y="202">n</tspan><tspan font-weight="400" font-size="18" x="395.175" y="202">6.386</tspan><tspan font-weight="400" font-size="18" x="589.103" y="202">4.992</tspan><tspan font-weight="400" font-size="18" x="863.162" y="202">0</tspan><tspan font-weight="400" font-size="18" x="62.5709" y="225">Interstitial Site</tspan><tspan font-weight="400" font-size="18" x="262.428" y="225">n</tspan><tspan font-weight="400" font-size="18" x="395.175" y="225">6.373</tspan><tspan font-weight="400" font-size="18" x="593.603" y="225">1.55</tspan><tspan font-weight="400" font-size="18" x="858.662" y="225">12</tspan><tspan font-size="18" x="5" y="269">B</tspan><tspan font-weight="400" font-size="18" x="87.0709" y="247">Mg Site</tspan><tspan font-weight="400" font-size="18" x="262.428" y="247">n</tspan><tspan font-weight="400" font-size="18" x="395.175" y="247">6.332</tspan><tspan font-weight="400" font-size="18" x="589.103" y="247">3.642</tspan><tspan font-weight="400" font-size="18" x="863.162" y="247">0</tspan><tspan font-weight="400" font-size="18" x="92.0709" y="269">Si Site</tspan><tspan font-weight="400" font-size="18" x="262.428" y="269">p</tspan><tspan font-weight="400" font-size="18" x="395.175" y="269">6.334</tspan><tspan font-weight="400" font-size="18" x="593.603" y="269">1.65</tspan><tspan font-weight="400" font-size="18" x="854.162" y="269">100</tspan><tspan font-weight="400" font-size="18" x="62.5709" y="292">Interstitial Site</tspan><tspan font-weight="400" font-size="18" x="262.428" y="292">n</tspan><tspan font-weight="400" font-size="18" x="395.175" y="292">6.347</tspan><tspan font-weight="400" font-size="18" x="589.103" y="292">3.442</tspan><tspan font-weight="400" font-size="18" x="863.162" y="292">0</tspan><tspan font-size="18" x="-0.500053" y="337">Ga</tspan><tspan font-weight="400" font-size="18" x="87.0709" y="314">Mg Site</tspan><tspan font-weight="400" font-size="18" x="262.428" y="314">n</tspan><tspan font-weight="400" font-size="18" x="395.175" y="314">6.346</tspan><tspan font-weight="400" font-size="18" x="589.103" y="314">0.719</tspan><tspan font-weight="400" font-size="18" x="858.662" y="314">30</tspan><tspan font-weight="400" font-size="18" x="92.0709" y="337">Si Site</tspan><tspan font-weight="400" font-size="18" x="262.428" y="337">p</tspan><tspan font-weight="400" font-size="18" x="395.175" y="337">6.355</tspan><tspan font-weight="400" font-size="18" x="593.603" y="337">0.54</tspan><tspan font-weight="400" font-size="18" x="858.662" y="337">68</tspan><tspan font-weight="400" font-size="18" x="62.5709" y="359">Interstitial Site</tspan><tspan font-weight="400" font-size="18" x="262.428" y="359">n</tspan><tspan font-weight="400" font-size="18" x="395.175" y="359">6.359</tspan><tspan font-weight="400" font-size="18" x="589.103" y="359">0.982</tspan><tspan font-weight="400" font-size="18" x="863.162" y="359">2</tspan><tspan font-size="18" x="5.49995" y="404">F</tspan><tspan font-weight="400" font-size="18" x="87.0709" y="381">Mg Site</tspan><tspan font-weight="400" font-size="18" x="262.428" y="381">p</tspan><tspan font-weight="400" font-size="18" x="395.175" y="381">6.337</tspan><tspan font-weight="400" font-size="18" x="589.103" y="381">5.142</tspan><tspan font-weight="400" font-size="18" x="863.162" y="381">0</tspan><tspan font-weight="400" font-size="18" x="92.0709" y="404">Si Site</tspan><tspan font-weight="400" font-size="18" x="262.428" y="404">n</tspan><tspan font-weight="400" font-size="18" x="395.175" y="404">6.325</tspan><tspan font-weight="400" font-size="18" x="598.103" y="404">3.8</tspan><tspan font-weight="400" font-size="18" x="863.162" y="404">0</tspan><tspan font-weight="400" font-size="18" x="62.5709" y="426">Interstitial Site</tspan><tspan font-weight="400" font-size="18" x="262.428" y="426">p</tspan><tspan font-weight="400" font-size="18" x="395.175" y="426">6.336</tspan><tspan font-weight="400" font-size="18" x="589.103" y="426">2.508</tspan><tspan font-weight="400" font-size="18" x="854.162" y="426">100</tspan><tspan font-size="18" x="2" y="471">Cl</tspan><tspan font-weight="400" font-size="18" x="87.0709" y="449">Mg Site</tspan><tspan font-weight="400" font-size="18" x="262.428" y="449">p</tspan><tspan font-weight="400" font-size="18" x="395.175" y="449">6.363</tspan><tspan font-weight="400" font-size="18" x="589.103" y="449">1.733</tspan><tspan font-weight="400" font-size="18" x="863.162" y="449">0</tspan><tspan font-weight="400" font-size="18" x="92.0709" y="471">Si Site</tspan><tspan font-weight="400" font-size="18" x="262.428" y="471">n</tspan><tspan font-weight="400" font-size="18" x="395.175" y="471">6.358</tspan><tspan font-weight="400" font-size="18" x="589.103" y="471">0.125</tspan><tspan font-weight="400" font-size="18" x="858.662" y="471">14</tspan><tspan font-weight="400" font-size="18" x="62.5709" y="494">Interstitial Site</tspan><tspan font-weight="400" font-size="18" x="262.428" y="494">p</tspan><tspan font-weight="400" font-size="18" x="395.175" y="494">6.368</tspan><tspan font-weight="400" font-size="18" x="586.103" y="494">-</tspan><tspan font-weight="400" font-size="18" x="592.103" y="494">0.092</tspan><tspan font-weight="400" font-size="18" x="858.662" y="494">86</tspan><tspan font-size="18" x="1" y="538">Br</tspan><tspan font-weight="400" font-size="18" x="87.0709" y="516">Mg Site</tspan><tspan font-weight="400" font-size="18" x="262.428" y="516">p</tspan><tspan font-weight="400" font-size="18" x="395.175" y="516">6.367</tspan><tspan font-weight="400" font-size="18" x="593.603" y="516">2.35</tspan><tspan font-weight="400" font-size="18" x="863.162" y="516">0</tspan><tspan font-weight="400" font-size="18" x="92.0709" y="538">Si Site</tspan><tspan font-weight="400" font-size="18" x="262.428" y="538">n</tspan><tspan font-weight="400" font-size="18" x="395.175" y="538">6.364</tspan><tspan font-weight="400" font-size="18" x="593.603" y="538">0.66</tspan><tspan font-weight="400" font-size="18" x="858.662" y="538">98</tspan><tspan font-weight="400" font-size="18" x="62.5709" y="561">Interstitial Site</tspan><tspan font-weight="400" font-size="18" x="262.428" y="561">p</tspan><tspan font-weight="400" font-size="18" x="395.175" y="561">6.377</tspan><tspan font-weight="400" font-size="18" x="593.603" y="561">1.15</tspan><tspan font-weight="400" font-size="18" x="863.162" y="561">2</tspan></text><path d="M1060.5 258C1060.5 247.23 1068.78 238.5 1079 238.5 1089.22 238.5 1097.5 247.23 1097.5 258 1097.5 268.77 1089.22 277.5 1079 277.5 1068.78 277.5 1060.5 268.77 1060.5 258Z" stroke="#2F528F" stroke-width="1.33333" stroke-miterlimit="8" fill="#F2F2F2" fill-rule="evenodd"/><path d="M1059.5 195C1059.5 184.23 1067.78 175.5 1078 175.5 1088.22 175.5 1096.5 184.23 1096.5 195 1096.5 205.77 1088.22 214.5 1078 214.5 1067.78 214.5 1059.5 205.77 1059.5 195Z" stroke="#2F528F" stroke-width="1.33333" stroke-miterlimit="8" fill="#FFFF00" fill-rule="evenodd"/><path d="M1059.5 131.5C1059.5 121.007 1067.78 112.5 1078 112.5 1088.22 112.5 1096.5 121.007 1096.5 131.5 1096.5 141.993 1088.22 150.5 1078 150.5 1067.78 150.5 1059.5 141.993 1059.5 131.5Z" stroke="#000000" stroke-width="1.33333" stroke-miterlimit="8" fill="#92D050" fill-rule="evenodd"/><text font-family="Calibri,Calibri_MSFontService,sans-serif" font-weight="400" font-size="16" transform="translate(1174.1 692)">9<tspan font-family="Times New Roman,Times New Roman_MSFontService,sans-serif" font-size="16" x="-70.038" y="-556">Highly Recommended</tspan><tspan font-family="Times New Roman,Times New Roman_MSFontService,sans-serif" font-size="16" x="-70.038" y="-493">Possible Recommended</tspan><tspan font-family="Times New Roman,Times New Roman_MSFontService,sans-serif" font-size="16" x="-70.038" y="-429">Not Recommended</tspan></text><rect x="1081.5" y="453.5" width="179" height="97" stroke="#000000" stroke-width="1.33333" stroke-miterlimit="8" fill="#FFFFFF"/><text font-family="Calibri,Calibri_MSFontService,sans-serif" font-weight="700" font-size="24" transform="translate(1090.35 480)">Doping Study <tspan font-size="24" x="0" y="29">for 1.04 at. % </tspan><tspan font-size="24" x="0" y="58">doping in Mg</tspan><tspan font-size="16" x="130.5" y="63">2</tspan><tspan font-size="24" x="138.667" y="58">Si</tspan></text><path d="M1042.5 116.5C1043.88 116.5 1045 116.687 1045 116.917L1045 411.083C1045 411.313 1046.12 411.5 1047.5 411.5 1046.12 411.5 1045 411.687 1045 411.917L1045 706.083C1045 706.313 1043.88 706.5 1042.5 706.5" stroke="#000000" stroke-width="0.666667" stroke-miterlimit="8" fill="none" fill-rule="evenodd"/><path d="M1047.75 411.276 1081.35 448.337 1080.86 448.784 1047.25 411.724ZM1083.17 444.886 1085.58 453.499 1077.25 450.26Z"/></g></svg>