<svg width="1041.28" height="554.141" viewBox="0 0 1041.28 554.141" xmlns="http://www.w3.org/2000/svg" xmlns:xlink="http://www.w3.org/1999/xlink" overflow="hidden"><g id="Group_24" transform="translate(-440 -263)"><g id="Group_23" transform="translate(439.989 262.965)"><path d="M1040.82 611.12C1039.66 613.62 1038.5 616.087 1037.35 618.52 1035.55 622.3 1033.77 626.007 1032.02 629.64 1031.24 631.25 1030.46 632.83 1029.7 634.41 1021.1 651.98 1013.07 667.52 1006.25 680.3 993.645 703.886 969.182 718.723 942.44 719L790.79 720.65 789.19 720.65 776.19 720.79 765.07 720.91 730.97 721.28 729.59 721.28 712.23 721.47 711.7 721.47 604.7 722.63 509.19 723.63 498.08 723.75 429.08 724.5 429 724.5 384.25 724.98 383.77 724.98 242.27 726.51 199.94 726.97C196.336 727.011 192.732 726.831 189.15 726.43L189.15 726.43C187.93 726.29 186.71 726.13 185.5 725.94 165.758 722.893 147.656 713.173 134.21 698.4 116 678.37 102.75 655 93.85 629.64 92.5633 625.98 91.3633 622.273 90.25 618.52 59.44 514.37 97 380 164.6 290.08 167.433 286.32 170.313 282.653 173.24 279.08L173.31 279C194.1 253.48 217.41 232.16 242.24 217 286.24 190.09 334.99 182.51 382.94 205.1 423.51 224.22 461.39 233.21 498.11 235.65 501.82 235.89 505.53 236.07 509.22 236.18 593.45 238.83 672.39 208.48 765.09 188.89 768.78 188.11 772.48 187.34 776.21 186.61 842.34 173.45 915.7 166.51 1002.94 181.1 1012 182.581 1020.95 184.72 1029.7 187.5 1033.55 188.74 1037.25 190.073 1040.82 191.5 1082.46 208.44 1105.17 239.74 1114.82 278.96 1115.73 282.6 1116.52 286.303 1117.19 290.07 1134.3 384.41 1084.19 518.23 1040.82 611.12Z" id="Path_299" fill="#F2F2F2" transform="translate(-79.34 -172.91)"/><path d="M576.36 618.52C575.957 622.26 575.332 625.974 574.49 629.64L668.19 629.64 668.19 618.52ZM498.11 681.33 509.22 681.24 509.22 653.77C505.41 653.6 501.7 653.43 498.11 653.25ZM265.19 618.52 265.19 629.64 463.69 629.64 463.69 618.52ZM1114.87 279 1040.87 279 1040.87 191.51C1037.3 190.063 1033.6 188.73 1029.75 187.51L1029.75 279 776.21 279 776.21 186.58C772.48 187.31 768.78 188.08 765.09 188.86L765.09 279 509.22 279 509.22 236.15C505.53 236.04 501.82 235.86 498.11 235.62L498.11 279 242.24 279 242.24 217C217.41 232.16 194.1 253.48 173.31 279L173.24 279 173.24 279.08C170.307 282.68 167.427 286.347 164.6 290.08L173.24 290.08 173.24 618.52 90.24 618.52C91.3467 622.273 92.5467 625.98 93.84 629.64L173.23 629.64 173.23 723.26C177.224 724.482 181.302 725.414 185.43 726.05 186.64 726.24 187.86 726.4 189.08 726.54L189.08 726.54C192.662 726.941 196.266 727.121 199.87 727.08L242.2 726.62 242.2 629.62 498.11 629.62 498.11 723.83 509.22 723.71 509.22 629.64 765.09 629.64 765.09 721 776.21 720.88 776.21 629.64 1029.7 629.64 1029.7 634.41C1030.46 632.83 1031.24 631.25 1032.02 629.64 1033.77 626.007 1035.55 622.3 1037.35 618.52 1038.5 616.093 1039.66 613.627 1040.82 611.12L1040.82 290.12 1117.24 290.12C1116.57 286.327 1115.78 282.62 1114.87 279ZM242.24 618.52 242.24 290.08 498.11 290.08 498.11 618.52ZM509.24 618.52 509.24 290.08 765.09 290.08 765.09 618.52ZM1029.72 618.52 776.21 618.52 776.21 290.08 1029.7 290.08Z" id="Path_300" opacity="0.1" transform="translate(-79.34 -172.91)"/><path d="M863.09 533.65 863.09 546.65 711.17 548.05 709.55 548.08 651.81 548.61 650.43 548.63 632.88 548.78 632.36 548.78 525.38 549.77 349.77 551.4 349.62 551.4 304.97 551.82 304.49 551.83 106.09 553.65 106.09 538.65 152.74 510.65 246.34 509.87 248.34 509.86 249 509.85 251 509.82 295.94 509.45 297.95 509.44 298.59 509.43 300.59 509.42 315 509.3 315.38 509.29 350.93 508.99 351.22 508.99 628.62 506.65 635.41 506.6 636.09 506.6 641.27 506.55 678.92 506.24 680.92 506.21 682.77 506.19 683.73 506.19 695.44 506.1 697.76 506.07 700.87 506.05 710.62 505.96 726.09 505.83 728.09 505.81 731.57 505.79 732.22 505.79 806.93 505.15Z" id="Path_301" fill="#65617D"/><path d="M863.09 533.65 863.09 546.65 711.17 548.05 709.55 548.08 651.81 548.61 650.43 548.63 632.88 548.78 632.36 548.78 525.38 549.77 349.77 551.4 349.62 551.4 304.97 551.82 304.49 551.83 106.09 553.65 106.09 538.65 152.74 510.65 246.34 509.87 248.34 509.86 249 509.85 251 509.82 295.94 509.45 297.95 509.44 298.59 509.43 300.59 509.42 315 509.3 315.38 509.29 350.93 508.99 351.22 508.99 628.62 506.65 635.41 506.6 636.09 506.6 641.27 506.55 678.92 506.24 680.92 506.21 682.77 506.19 683.73 506.19 695.44 506.1 697.76 506.07 700.87 506.05 710.62 505.96 726.09 505.83 728.09 505.81 731.57 505.79 732.22 505.79 806.93 505.15Z" id="Path_302" opacity="0.2"/><path d="M375.44 656.57 375.44 681.06C375.441 683.428 374.079 685.584 371.94 686.6 371.16 686.978 370.307 687.183 369.44 687.2L334.54 687.94C333.608 687.962 332.684 687.767 331.84 687.37 329.663 686.372 328.267 684.195 328.27 681.8L328.27 656.57Z" id="Path_303" fill="#3F3D56" transform="translate(-79.34 -172.91)"/><path d="M375.44 656.57 375.44 681.06C375.441 683.428 374.079 685.584 371.94 686.6 371.16 686.978 370.307 687.183 369.44 687.2L334.54 687.94C333.608 687.962 332.684 687.767 331.84 687.37 329.663 686.372 328.267 684.195 328.27 681.8L328.27 656.57Z" id="Path_304" opacity="0.1" transform="translate(-79.34 -172.91)"/><path d="M377.44 656.57 377.44 681.06C377.441 683.428 376.079 685.584 373.94 686.6 373.16 686.978 372.307 687.183 371.44 687.2L336.54 687.94C335.608 687.962 334.684 687.767 333.84 687.37 331.663 686.372 330.267 684.195 330.27 681.8L330.27 656.57Z" id="Path_305" fill="#3F3D56" transform="translate(-79.34 -172.91)"/><rect x="0" y="0" width="47.17" height="31.5" id="Rectangle_137" fill="#3F3D56" transform="translate(680.92 483.65)"/><rect x="0" y="0" width="47.17" height="31.5" id="Rectangle_138" opacity="0.1" transform="translate(680.92 483.65)"/><rect x="0" y="0" width="47.17" height="31.5" id="Rectangle_139" fill="#3F3D56" transform="translate(678.92 483.65)"/><path d="M298.09 483.65 298.09 488.62 250.92 489.88 250.92 483.65Z" id="Path_306" opacity="0.1"/><path d="M460.69 485.27 460.69 653.47C460.665 655.602 458.971 657.34 456.84 657.42L265.19 662.52 265.14 662.52C262.97 662.493 261.217 660.74 261.19 658.57L261.19 485.27C261.217 483.1 262.97 481.347 265.14 481.32L456.74 481.32C458.91 481.347 460.663 483.1 460.69 485.27Z" id="Path_307" fill="#65617D" transform="translate(-79.34 -172.91)"/><path d="M265.19 481.32 265.19 662.52 265.14 662.52C262.97 662.493 261.217 660.74 261.19 658.57L261.19 485.27C261.217 483.1 262.97 481.347 265.14 481.32Z" id="Path_308" opacity="0.1" transform="translate(-79.34 -172.91)"/><path d="M194.59 319.15 372.09 319.15 372.09 467.4 194.59 471.4Z" id="Path_309" fill="#39374D"/><path d="M726.09 483.65 726.09 490.06 678.92 488.8 678.92 483.65Z" id="Path_310" opacity="0.1"/><path d="M867.69 485.27 867.69 658.57C867.663 660.76 865.88 662.52 863.69 662.52L863.69 662.52 672 657.42C669.869 657.34 668.175 655.602 668.15 653.47L668.15 485.27C668.177 483.1 669.93 481.347 672.1 481.32L863.7 481.32C865.886 481.325 867.663 483.084 867.69 485.27Z" id="Path_311" fill="#65617D" transform="translate(-79.34 -172.91)"/><path d="M867.69 485.27 867.69 658.57C867.663 660.76 865.88 662.52 863.69 662.52L863.69 662.52 863.69 481.32 863.69 481.32C865.88 481.32 867.663 483.08 867.69 485.27Z" id="Path_312" opacity="0.1" transform="translate(-79.34 -172.91)"/><path d="M775.59 319.15 598.09 319.15 598.09 467.4 775.59 471.4Z" id="Path_313" fill="#39374D"/><path d="M663.19 485.27 663.19 653.47C663.165 655.602 661.471 657.34 659.34 657.42L467.69 662.52 467.69 662.52C465.5 662.52 463.717 660.76 463.69 658.57L463.69 485.27C463.717 483.1 465.47 481.347 467.64 481.32L659.24 481.32C661.41 481.347 663.163 483.1 663.19 485.27Z" id="Path_314" fill="#65617D" transform="translate(-79.34 -172.91)"/><path d="M397.09 319.15 574.59 319.15 574.59 467.4 397.09 471.4Z" id="Path_315" fill="#4267B2"/><path d="M863.09 533.65 863.09 546.65 711.17 548.05 709.55 548.08 651.81 548.61 650.43 548.63 632.88 548.78 632.36 548.78 525.38 549.77 349.77 551.4 349.62 551.4 304.97 551.82 304.49 551.83 106.09 553.65 106.09 538.65 308.6 537.32 309.08 537.32 350.07 537.04 350.26 537.04 633.34 535.17 633.63 535.17 633.8 535.16 634.27 535.16 639.06 535.13 640.52 535.13 715.01 534.63 719.41 534.61 720.39 534.6Z" id="Path_316" opacity="0.1"/><circle cx="51.33" cy="51.33" r="51.33" id="Ellipse_111" fill="#FBBEBE" transform="translate(435.93 246.82)"/><path d="M617.94 550.07C617.94 550.07 518.44 562.07 527.94 550.07 531.38 545.73 532.33 532.87 532.14 518.22 532.08 513.77 531.92 509.16 531.69 504.57 530.59 482.57 527.94 461.07 527.94 461.07 527.94 461.07 614.94 420.07 604.94 452.57 600.94 465.7 602.25 484.14 605.29 501.45 606.18 506.5 607.21 511.45 608.29 516.15 610.926 527.614 614.147 538.935 617.94 550.07Z" id="Path_317" fill="#FBBEBE" transform="translate(-79.34 -172.91)"/><path d="M585.47 546C596.98 543.87 609.17 540 620 544.46 622.85 545.63 625.47 547.34 628.39 548.32 631.31 549.3 634.51 549.54 637.55 550.23 648.23 552.65 656.89 560.78 662.45 570.23 668.01 579.68 670.89 590.37 673.71 600.95L680.61 626.78C686.61 649.23 692.61 671.87 694 695.08 610.467 699.862 526.742 700.339 443.16 696.51 448.6 686.17 454.16 675.2 453.7 663.51 453.24 651.82 446.51 640.29 448.94 628.77 450.49 621.43 455.51 615.38 458.58 608.55 467.33 589.03 460.52 562.76 475.9 547.9 482.82 541.22 492.9 538.69 502.53 539.01 514.81 539.42 527.38 543.25 539.53 545.12 555.09 547.48 569.79 548.88 585.47 546Z" id="Path_318" fill="#FF6584" transform="translate(-79.34 -172.91)"/><path d="M716.37 657.17 716.27 658.6 716.27 658.7 716.1 661 714.77 679.51 713.16 701.81 712.7 708.09 711.7 721.53 711.7 721.7 604.7 722.7 429.11 724.6 429.11 725.44 428.97 725.44 428.97 724.32 429.42 709.96 430.28 681.9 431.02 658.11 431.09 655.74C431.268 649.927 436.124 645.359 441.937 645.537 442.128 645.543 442.319 645.554 442.51 645.57 447.23 645.97 453.36 646.46 460.69 646.98L463.69 647.2C506.02 650.14 584.25 653.94 663.19 649.2 664.85 649.11 666.52 649.01 668.19 648.89 680.43 648.12 692.66 647.13 704.77 645.89 710.554 645.284 715.734 649.482 716.34 655.265 716.405 655.882 716.415 656.502 716.37 657.12Z" id="Path_319" opacity="0.1" transform="translate(-79.34 -172.91)"/><path d="M429.08 725.44 429.08 724.6 604.7 722.69 711.7 721.69 712 721.69 712 721.52 713 708.08 713.43 702.08 715.07 679.47 716.36 661.57 716.36 661.13C716.42 660.305 716.383 659.476 716.25 658.66 716.256 658.627 716.256 658.593 716.25 658.56 715.975 656.872 715.288 655.279 714.25 653.92 712.011 651.049 708.45 649.537 704.83 649.92 692.72 651.16 680.49 652.15 668.25 652.92 666.58 653.04 664.91 653.14 663.25 653.23 584.31 657.92 506.08 654.12 463.75 651.23L460.75 651.01C453.42 650.49 447.29 650.01 442.57 649.6 437.192 649.146 432.34 652.828 431.33 658.13 431.229 658.671 431.169 659.22 431.15 659.77L430.47 681.93 429.54 710 429.1 724.36 429.1 725.48Z" id="Path_320" fill="#3F3D56" transform="translate(-79.34 -172.91)"/><path d="M716.67 664.18 715.44 679.51 713.61 702.36 713.15 708.08 712.15 720.89 712.09 721.53 712.09 721.7 712.09 721.7 711.94 723.18 712.05 721.7 711.76 721.7 604.76 722.7 429.11 724.6 429.11 724.32 429.6 709.96 430.6 681.9 431.24 663.25C431.304 661.094 432.456 659.118 434.3 658 435.432 657.306 436.756 656.991 438.08 657.1 440.18 657.27 442.76 657.47 445.77 657.69 450.66 658.05 456.69 658.47 463.71 658.91 476.71 659.73 493.02 660.61 511.71 661.33 563.71 663.33 633.91 664 700.59 658.16 703.59 657.9 706.69 657.61 709.72 657.32 710.919 657.2 712.128 657.43 713.2 657.98 713.504 658.131 713.792 658.312 714.06 658.52 714.93 659.151 715.62 659.999 716.06 660.98 716.162 661.175 716.246 661.379 716.31 661.59 716.61 662.418 716.733 663.301 716.67 664.18Z" id="Path_321" opacity="0.1" transform="translate(-79.34 -172.91)"/><path d="M377.44 677.87 377.44 681.06C377.441 683.428 376.079 685.584 373.94 686.6L333.84 687.37C331.663 686.372 330.267 684.195 330.27 681.8L330.27 678.8Z" id="Path_322" opacity="0.1" transform="translate(-79.34 -172.91)"/><path d="M298.59 515.57 246.34 516.57 246.34 507.9 298.59 506.9Z" id="Path_323" fill="#3F3D56"/><path d="M298.59 515.57 246.34 516.57 246.34 507.9 298.59 506.9Z" id="Path_324" opacity="0.1"/><path d="M300.59 515.57 248.34 516.57 248.34 507.9 300.59 506.9Z" id="Path_325" fill="#3F3D56"/><path d="M758.56 679.87 758.56 683.06C758.559 685.428 759.921 687.584 762.06 688.6L802.16 689.37C804.337 688.372 805.733 686.195 805.73 683.8L805.73 680.8Z" id="Path_326" opacity="0.1" transform="translate(-79.34 -172.91)"/><path d="M678.72 517.57 730.97 518.57 730.97 509.9 678.72 508.9Z" id="Path_327" opacity="0.1"/><path d="M676.72 517.57 728.97 518.57 728.97 509.9 676.72 508.9Z" id="Path_328" fill="#3F3D56"/><path d="M534.13 486.79C534.21 493.79 530.97 500.39 528.22 506.86 518.207 530.428 513.871 556.019 515.56 581.57 516.29 592.57 518.14 603.57 516.29 614.47 514.44 625.37 507.86 636.24 497.29 639.37 514.82 649.82 538.55 648.72 555.05 636.71 563.84 630.31 570.39 621.38 576.8 612.6 576.039 628.372 571.472 643.726 563.49 657.35 592.668 654.767 619.382 639.932 637 616.53 641.31 610.72 645.06 604.34 646.72 597.3 649.81 584.3 645.5 570.79 642.21 557.8 639.461 546.941 637.4 535.919 636.04 524.8 635.61 521.24 635.26 517.58 636.14 514.1 637.14 510.03 639.81 506.59 641.78 502.88 647.38 492.34 647.51 479.58 644.64 468 641.77 456.42 636.15 445.74 630.58 435.19 626.12 426.73 621.28 417.88 613.12 412.91 608.02 409.81 602.12 408.52 596.24 407.27L570.87 401.84C565.32 400.65 559.61 399.46 554 400.33 544.53 401.81 537.86 408.65 532 415.67 527.41 421.13 516.19 431.38 515.4 438.53 514.68 445.12 520.5 456.16 521.49 463.11 522.79 472.11 523.71 469.11 528.79 474.63 532 478.05 534.07 482 534.13 486.79Z" id="Path_329" fill="#3F3D56" transform="translate(-79.34 -172.91)"/></g><g id="docusaurus_keytar" transform="translate(670.271 615.768)"><path d="M99 52 142.635 52 142.635 69.662 99 69.662Z" id="Path_40" fill="#FFFFFF" fill-rule="evenodd" transform="translate(-49.132 -33.936)"/><path d="M13.389 158.195C9.67951 158.194 6.25242 156.214 4.4 153 1.52425 157.957 3.2117 164.307 8.16903 167.183 9.75443 168.103 11.5551 168.586 13.388 168.584L23.779 168.584 23.779 158.195Z" id="Path_41" fill="#3ECC5F" fill-rule="evenodd" transform="translate(-3 -82.47)"/><path d="M66.967 38.083 103.34 35.81 103.34 30.615C103.34 24.8773 98.6887 20.226 92.951 20.226 92.9507 20.226 92.9503 20.226 92.95 20.226L46.2 20.226 44.9 17.977C44.4867 17.259 43.5696 17.012 42.8517 17.4253 42.6223 17.5573 42.432 17.7477 42.3 17.977L41 20.226 39.7 17.977C39.2867 17.259 38.3696 17.012 37.6517 17.4253 37.4223 17.5573 37.232 17.7477 37.1 17.977L35.8 20.226 34.5 17.977C34.0867 17.259 33.1696 17.012 32.4517 17.4253 32.2223 17.5573 32.032 17.7477 31.9 17.977L30.6 20.226 30.566 20.226 28.414 18.075C27.8276 17.4898 26.8778 17.4909 26.2927 18.0773 26.1075 18.2629 25.9741 18.4938 25.906 18.747L25.21 21.4 22.51 20.677C21.7096 20.4633 20.8875 20.9388 20.6738 21.7392 20.606 21.993 20.6061 22.2602 20.674 22.514L21.396 25.214 18.746 25.924C17.9458 26.1384 17.4709 26.9609 17.6853 27.7611 17.7534 28.0152 17.8871 28.2469 18.073 28.433L20.225 30.585C20.225 30.596 20.225 30.607 20.225 30.618L17.976 31.918C17.258 32.3313 17.011 33.2484 17.4243 33.9663 17.5563 34.1957 17.7467 34.386 17.976 34.518L20.225 35.818 17.976 37.118C17.258 37.5313 17.011 38.4484 17.4243 39.1663 17.5563 39.3957 17.7467 39.586 17.976 39.718L20.226 41 17.977 42.3C17.259 42.7133 17.012 43.6304 17.4253 44.3483 17.5573 44.5777 17.7477 44.768 17.977 44.9L20.226 46.2 17.977 47.5C17.259 47.9133 17.012 48.8304 17.4253 49.5483 17.5573 49.7777 17.7477 49.968 17.977 50.1L20.226 51.4 17.977 52.7C17.259 53.1133 17.012 54.0304 17.4253 54.7483 17.5573 54.9777 17.7477 55.168 17.977 55.3L20.226 56.6 17.977 57.9C17.259 58.3133 17.012 59.2304 17.4253 59.9483 17.5573 60.1777 17.7477 60.368 17.977 60.5L20.226 61.8 17.977 63.1C17.259 63.5133 17.012 64.4304 17.4253 65.1483 17.5573 65.3777 17.7477 65.568 17.977 65.7L20.226 67 17.977 68.3C17.259 68.7133 17.012 69.6304 17.4253 70.3483 17.5573 70.5777 17.7477 70.768 17.977 70.9L20.226 72.2 17.977 73.5C17.259 73.9133 17.012 74.8304 17.4253 75.5483 17.5573 75.7777 17.7477 75.968 17.977 76.1L20.226 77.4 17.977 78.7C17.259 79.1133 17.012 80.0304 17.4253 80.7483 17.5573 80.9777 17.7477 81.168 17.977 81.3L20.226 82.6 17.977 83.9C17.259 84.3133 17.012 85.2304 17.4253 85.9483 17.5573 86.1777 17.7477 86.368 17.977 86.5L20.226 87.8 17.977 89.1C17.259 89.5133 17.012 90.4304 17.4253 91.1483 17.5573 91.3777 17.7477 91.568 17.977 91.7L20.226 93C20.253 98.7185 24.8964 103.34 30.615 103.34L92.95 103.34C98.6877 103.341 103.339 98.6897 103.34 92.952 103.34 92.9513 103.34 92.9507 103.34 92.95L103.34 51.393 66.967 49.12C63.9189 48.9275 61.6041 46.3004 61.7966 43.2524 61.9722 40.4728 64.1875 38.2576 66.967 38.082" id="Path_42" fill="#3ECC5F" fill-rule="evenodd" transform="translate(-9.836 -17.226)"/><path d="M143 163.779 158.584 163.779 158.584 143 143 143Z" id="Path_43" fill="#3ECC5F" fill-rule="evenodd" transform="translate(-70.275 -77.665)"/><path d="M173.779 148.389C173.668 148.393 173.557 148.404 173.447 148.422 173.427 148.344 173.409 148.266 173.387 148.188 174.713 147.645 175.347 146.13 174.804 144.804 174.26 143.478 172.745 142.844 171.42 143.388 171.205 143.475 171.004 143.592 170.82 143.733 170.763 143.674 170.705 143.616 170.646 143.558 171.506 142.413 171.274 140.787 170.129 139.928 168.983 139.068 167.358 139.299 166.498 140.445 166.372 140.613 166.267 140.796 166.185 140.989 166.108 140.967 166.031 140.949 165.954 140.929 166.192 139.513 165.237 138.172 163.821 137.934 162.405 137.696 161.064 138.651 160.826 140.067 160.778 140.352 160.778 140.644 160.826 140.929 160.749 140.949 160.672 140.967 160.595 140.989 160.04 139.668 158.519 139.048 157.198 139.603 155.878 140.158 155.257 141.679 155.812 143 155.896 143.198 156.004 143.386 156.134 143.558 152.028 147.562 151.946 154.136 155.95 158.242 159.954 162.348 166.528 162.43 170.634 158.426 172.003 157.091 172.977 155.403 173.448 153.55 174.867 153.74 176.171 152.744 176.361 151.325 176.551 149.906 175.555 148.602 174.137 148.412 174.018 148.396 173.899 148.388 173.78 148.389" id="Path_44" fill="#44D860" fill-rule="evenodd" transform="translate(-75.08 -75.262)"/><path d="M153 113.389 168.584 113.389 168.584 103 153 103Z" id="Path_45" fill="#3ECC5F" fill-rule="evenodd" transform="translate(-75.08 -58.444)"/><path d="M183.389 108.944C184.107 108.944 184.689 108.362 184.689 107.644 184.689 106.926 184.107 106.344 183.389 106.344 183.333 106.346 183.278 106.352 183.223 106.361 183.213 106.322 183.204 106.283 183.193 106.244 183.856 105.968 184.169 105.207 183.893 104.544 183.691 104.06 183.218 103.744 182.693 103.744 182.409 103.745 182.134 103.839 181.91 104.013 181.881 103.984 181.852 103.955 181.823 103.926 181.993 103.703 182.085 103.43 182.086 103.15 182.082 102.432 181.497 101.853 180.779 101.857 180.263 101.86 179.798 102.168 179.593 102.641 176.832 101.862 173.962 103.47 173.183 106.231 172.404 108.992 174.012 111.862 176.773 112.641 177.695 112.901 178.671 112.901 179.593 112.641 179.878 113.3 180.644 113.603 181.302 113.318 181.776 113.113 182.083 112.648 182.086 112.132 182.085 111.852 181.993 111.579 181.823 111.356 181.852 111.327 181.881 111.298 181.91 111.269 182.134 111.443 182.409 111.537 182.693 111.538 183.411 111.538 183.993 110.956 183.993 110.238 183.993 109.713 183.677 109.24 183.193 109.038 183.204 109 183.213 108.96 183.223 108.921 183.278 108.93 183.333 108.936 183.389 108.938" id="Path_46" fill="#44D860" fill-rule="evenodd" transform="translate(-84.691 -57.894)"/><path d="M52.188 48.292C51.47 48.292 50.888 47.71 50.888 46.992 50.7905 44.8403 48.9671 43.1751 46.8154 43.2726 44.8003 43.3639 43.1873 44.9769 43.096 46.992 43.096 47.71 42.514 48.292 41.796 48.292 41.078 48.292 40.496 47.71 40.496 46.992 40.496 43.4057 43.4032 40.4985 46.9895 40.4985 50.5758 40.4985 53.483 43.4057 53.483 46.992 53.483 47.71 52.901 48.292 52.183 48.292" id="Path_47" fill-rule="evenodd" transform="translate(-21.02 -28.41)"/><path d="M103 139.752 134.168 139.752C139.906 139.752 144.557 135.101 144.557 129.363L144.557 93 113.389 93C107.651 93 103 97.6513 103 103.389Z" id="Path_48" fill="#FFFF50" fill-rule="evenodd" transform="translate(-51.054 -53.638)"/><path d="M141.1 94.017 115.106 94.017C114.819 94.017 114.587 93.7844 114.587 93.4975 114.587 93.2106 114.819 92.978 115.106 92.978L141.1 92.978C141.387 92.978 141.62 93.2106 141.62 93.4975 141.62 93.7844 141.387 94.017 141.1 94.017M141.1 104.406 115.106 104.406C114.819 104.406 114.587 104.173 114.587 103.886 114.587 103.6 114.819 103.367 115.106 103.367L141.1 103.367C141.387 103.367 141.62 103.6 141.62 103.886 141.62 104.173 141.387 104.406 141.1 104.406M141.1 114.795 115.106 114.795C114.819 114.795 114.587 114.562 114.587 114.275 114.587 113.989 114.819 113.756 115.106 113.756L141.1 113.756C141.387 113.756 141.62 113.989 141.62 114.275 141.62 114.562 141.387 114.795 141.1 114.795M141.1 88.918 115.106 88.918C114.819 88.918 114.587 88.6854 114.587 88.3985 114.587 88.1116 114.819 87.879 115.106 87.879L141.1 87.879C141.387 87.879 141.62 88.1116 141.62 88.3985 141.62 88.6854 141.387 88.918 141.1 88.918M141.1 99.211 115.106 99.211C114.819 99.211 114.587 98.9784 114.587 98.6915 114.587 98.4046 114.819 98.172 115.106 98.172L141.1 98.172C141.387 98.172 141.62 98.4046 141.62 98.6915 141.62 98.9784 141.387 99.211 141.1 99.211M141.1 109.6 115.106 109.6C114.819 109.6 114.587 109.367 114.587 109.08 114.587 108.794 114.819 108.561 115.106 108.561L141.1 108.561C141.387 108.561 141.62 108.794 141.62 109.08 141.62 109.367 141.387 109.6 141.1 109.6M148.882 61.607C148.876 61.607 148.871 61.607 148.864 61.607 147.259 61.662 146.499 63.267 145.829 64.684 145.129 66.164 144.589 67.127 143.703 67.098 142.722 67.063 142.161 65.954 141.566 64.781 140.883 63.434 140.104 61.905 138.466 61.962 136.884 62.016 136.122 63.413 135.449 64.646 134.734 65.959 134.249 66.758 133.308 66.721 132.308 66.685 131.775 65.783 131.159 64.74 130.473 63.578 129.68 62.273 128.075 62.317 126.52 62.37 125.756 63.556 125.081 64.603 124.368 65.709 123.868 66.384 122.917 66.344 121.892 66.308 121.363 65.56 120.75 64.694 120.062 63.721 119.287 62.62 117.688 62.673 116.455 62.7823 115.352 63.4828 114.729 64.552 114.089 65.364 113.589 66.008 112.529 65.967 112.242 65.9641 112.007 66.1946 112.004 66.4818 112.001 66.7586 112.216 66.9891 112.492 67.006 113.757 66.9822 114.916 66.2941 115.542 65.195 116.153 64.418 116.681 63.747 117.72 63.712 118.72 63.669 119.19 64.291 119.899 65.294 120.573 66.247 121.337 67.327 122.876 67.383 124.488 67.437 125.263 66.232 125.95 65.166 126.564 64.213 127.094 63.391 128.106 63.356 129.037 63.321 129.544 64.056 130.259 65.268 130.933 66.409 131.696 67.702 133.265 67.759 134.888 67.815 135.672 66.398 136.355 65.143 136.947 64.058 137.505 63.034 138.495 63 139.426 62.978 139.912 63.829 140.63 65.249 141.301 66.575 142.062 68.077 143.656 68.135L143.744 68.135C145.336 68.135 146.091 66.535 146.759 65.125 147.351 63.873 147.911 62.694 148.872 62.646Z" id="Path_49" fill-rule="evenodd" transform="translate(-55.378 -38.552)"/><path d="M83 163.779 103.779 163.779 103.779 143 83 143Z" id="Path_50" fill="#3ECC5F" fill-rule="evenodd" transform="translate(-41.443 -77.665)"/><g id="Group_8" transform="matrix(0.966 -0.259 0.259 0.966 51.971 43.3)"><rect x="0" y="0" rx="2" width="43.906" height="17.333" id="Rectangle_3" fill="#D8D8D8"/><g id="Group_2" transform="translate(0.728 10.948)"><rect x="0" y="0" rx="1" width="2.537" height="2.537" id="Rectangle_4" fill="#4A4A4A" transform="translate(7.985 0)"/><rect x="0" y="0" rx="1" width="2.537" height="2.537" id="Rectangle_5" fill="#4A4A4A" transform="translate(10.991 0)"/><rect x="0" y="0" rx="1" width="2.537" height="2.537" id="Rectangle_6" fill="#4A4A4A" transform="translate(13.997 0)"/><rect x="0" y="0" rx="1" width="2.537" height="2.537" id="Rectangle_7" fill="#4A4A4A" transform="translate(17.003 0)"/><rect x="0" y="0" rx="1" width="2.537" height="2.537" id="Rectangle_8" fill="#4A4A4A" transform="translate(20.009 0)"/><rect x="0" y="0" rx="1" width="2.537" height="2.537" id="Rectangle_9" fill="#4A4A4A" transform="translate(23.015 0)"/><rect x="0" y="0" rx="1" width="2.537" height="2.537" id="Rectangle_10" fill="#4A4A4A" transform="translate(26.021 0)"/><rect x="0" y="0" rx="1" width="2.537" height="2.537" id="Rectangle_11" fill="#4A4A4A" transform="translate(29.028 0)"/><rect x="0" y="0" rx="1" width="2.537" height="2.537" id="Rectangle_12" fill="#4A4A4A" transform="translate(32.034 0)"/><path d="M0.519 0 6.9 0C7.18663-0.00110511 7.41989 0.230362 7.421 0.516995 7.421 0.517997 7.421 0.518998 7.421 0.52L7.421 2.02C7.421 2.30664 7.18864 2.539 6.902 2.539L0.519 2.539C0.232364 2.539-3.88808e-06 2.30664-8.67672e-06 2.02001-8.69347e-06 2.01901-5.80329e-06 2.018-6.19887e-09 2.017L0 0.519C-1.11022e-16 0.232364 0.232364-6.19888e-09 0.519-6.19888e-09ZM35.653 0 42.036 0C42.3226 8.88178e-16 42.555 0.232364 42.555 0.519L42.555 2.019C42.555 2.30564 42.3226 2.538 42.036 2.538L35.652 2.538C35.3654 2.538 35.133 2.30564 35.133 2.019L35.133 0.519C35.133 0.232364 35.3654-6.19888e-09 35.652-6.19888e-09Z" id="Path_51" fill="#4A4A4A" fill-rule="evenodd"/></g><g id="Group_3" transform="translate(0.728 4.878)"><path d="M0.519 0 2.956 0C3.24264 -1.11022e-16 3.475 0.232364 3.475 0.519L3.475 2.019C3.475 2.30564 3.24264 2.538 2.956 2.538L0.519 2.538C0.232364 2.538-1.73149e-06 2.30564-3.85976e-06 2.019-3.86472e-06 2.01834-2.5802e-06 2.01767-6.19904e-09 2.017L0 0.519C-1.11022e-16 0.232364 0.232364-6.19888e-09 0.519-6.19888e-09Z" id="Path_52" fill="#4A4A4A" fill-rule="evenodd"/><rect x="0" y="0" rx="1" width="2.537" height="2.537" id="Rectangle_13" fill="#4A4A4A" transform="translate(3.945 0)"/><rect x="0" y="0" rx="1" width="2.537" height="2.537" id="Rectangle_14" fill="#4A4A4A" transform="translate(6.951 0)"/><rect x="0" y="0" rx="1" width="2.537" height="2.537" id="Rectangle_15" fill="#4A4A4A" transform="translate(9.958 0)"/><rect x="0" y="0" rx="1" width="2.537" height="2.537" id="Rectangle_16" fill="#4A4A4A" transform="translate(12.964 0)"/><rect x="0" y="0" rx="1" width="2.537" height="2.537" id="Rectangle_17" fill="#4A4A4A" transform="translate(15.97 0)"/><rect x="0" y="0" rx="1" width="2.537" height="2.537" id="Rectangle_18" fill="#4A4A4A" transform="translate(18.976 0)"/><rect x="0" y="0" rx="1" width="2.537" height="2.537" id="Rectangle_19" fill="#4A4A4A" transform="translate(21.982 0)"/><rect x="0" y="0" rx="1" width="2.537" height="2.537" id="Rectangle_20" fill="#4A4A4A" transform="translate(24.988 0)"/><rect x="0" y="0" rx="1" width="2.537" height="2.537" id="Rectangle_21" fill="#4A4A4A" transform="translate(27.994 0)"/><rect x="0" y="0" rx="1" width="2.537" height="2.537" id="Rectangle_22" fill="#4A4A4A" transform="translate(31 0)"/><rect x="0" y="0" rx="1" width="2.537" height="2.537" id="Rectangle_23" fill="#4A4A4A" transform="translate(34.006 0)"/><rect x="0" y="0" rx="1" width="2.537" height="2.537" id="Rectangle_24" fill="#4A4A4A" transform="translate(37.012 0)"/><rect x="0" y="0" rx="1" width="2.537" height="2.537" id="Rectangle_25" fill="#4A4A4A" transform="translate(40.018 0)"/></g><g id="Group_4" transform="matrix(-1 1.22465e-16 -1.22465e-16 -1 43.283 4.538)"><path d="M0.519 0 2.956 0C3.24264 -1.11022e-16 3.475 0.232364 3.475 0.519L3.475 2.019C3.475 2.30564 3.24264 2.538 2.956 2.538L0.519 2.538C0.232364 2.538-1.73149e-06 2.30564-3.85976e-06 2.019-3.86472e-06 2.01834-2.5802e-06 2.01767-6.19904e-09 2.017L0 0.519C-1.11022e-16 0.232364 0.232364-6.19888e-09 0.519-6.19888e-09Z" id="Path_53" fill="#4A4A4A" fill-rule="evenodd"/><rect x="0" y="0" rx="1" width="2.537" height="2.537" id="Rectangle_26" fill="#4A4A4A" transform="translate(3.945 0)"/><rect x="0" y="0" rx="1" width="2.537" height="2.537" id="Rectangle_27" fill="#4A4A4A" transform="translate(6.951 0)"/><rect x="0" y="0" rx="1" width="2.537" height="2.537" id="Rectangle_28" fill="#4A4A4A" transform="translate(9.958 0)"/><rect x="0" y="0" rx="1" width="2.537" height="2.537" id="Rectangle_29" fill="#4A4A4A" transform="translate(12.964 0)"/><rect x="0" y="0" rx="1" width="2.537" height="2.537" id="Rectangle_30" fill="#4A4A4A" transform="translate(15.97 0)"/><rect x="0" y="0" rx="1" width="2.537" height="2.537" id="Rectangle_31" fill="#4A4A4A" transform="translate(18.976 0)"/><rect x="0" y="0" rx="1" width="2.537" height="2.537" id="Rectangle_32" fill="#4A4A4A" transform="translate(21.982 0)"/><rect x="0" y="0" rx="1" width="2.537" height="2.537" id="Rectangle_33" fill="#4A4A4A" transform="translate(24.988 0)"/><rect x="0" y="0" rx="1" width="2.537" height="2.537" id="Rectangle_34" fill="#4A4A4A" transform="translate(27.994 0)"/><rect x="0" y="0" rx="1" width="2.537" height="2.537" id="Rectangle_35" fill="#4A4A4A" transform="translate(31.001 0)"/><rect x="0" y="0" rx="1" width="2.537" height="2.537" id="Rectangle_36" fill="#4A4A4A" transform="translate(34.007 0)"/><rect x="0" y="0" rx="1" width="2.537" height="2.537" id="Rectangle_37" fill="#4A4A4A" transform="translate(37.013 0)"/><rect x="0" y="0" rx="1" width="2.537" height="2.537" id="Rectangle_38" fill="#4A4A4A" transform="translate(40.018 0)"/><rect x="0" y="0" rx="1" width="2.537" height="2.537" id="Rectangle_39" fill="#4A4A4A" transform="translate(3.945 0)"/><rect x="0" y="0" rx="1" width="2.537" height="2.537" id="Rectangle_40" fill="#4A4A4A" transform="translate(6.951 0)"/><rect x="0" y="0" rx="1" width="2.537" height="2.537" id="Rectangle_41" fill="#4A4A4A" transform="translate(9.958 0)"/><rect x="0" y="0" rx="1" width="2.537" height="2.537" id="Rectangle_42" fill="#4A4A4A" transform="translate(12.964 0)"/><rect x="0" y="0" rx="1" width="2.537" height="2.537" id="Rectangle_43" fill="#4A4A4A" transform="translate(15.97 0)"/><rect x="0" y="0" rx="1" width="2.537" height="2.537" id="Rectangle_44" fill="#4A4A4A" transform="translate(18.976 0)"/><rect x="0" y="0" rx="1" width="2.537" height="2.537" id="Rectangle_45" fill="#4A4A4A" transform="translate(21.982 0)"/><rect x="0" y="0" rx="1" width="2.537" height="2.537" id="Rectangle_46" fill="#4A4A4A" transform="translate(24.988 0)"/><rect x="0" y="0" rx="1" width="2.537" height="2.537" id="Rectangle_47" fill="#4A4A4A" transform="translate(27.994 0)"/><rect x="0" y="0" rx="1" width="2.537" height="2.537" id="Rectangle_48" fill="#4A4A4A" transform="translate(31.001 0)"/><rect x="0" y="0" rx="1" width="2.537" height="2.537" id="Rectangle_49" fill="#4A4A4A" transform="translate(34.007 0)"/><rect x="0" y="0" rx="1" width="2.537" height="2.537" id="Rectangle_50" fill="#4A4A4A" transform="translate(37.013 0)"/><rect x="0" y="0" rx="1" width="2.537" height="2.537" id="Rectangle_51" fill="#4A4A4A" transform="translate(40.018 0)"/></g><g id="Group_6" transform="translate(0.728 7.883)"><path d="M0.519 0 3.989 0C4.27564 -1.11022e-16 4.508 0.232364 4.508 0.519L4.508 2.019C4.508 2.30564 4.27564 2.538 3.989 2.538L0.519 2.538C0.232364 2.538-1.73149e-06 2.30564-3.85976e-06 2.019-3.86472e-06 2.01834-2.5802e-06 2.01767-6.19904e-09 2.017L0 0.52C-0.000552285 0.233365 0.231364 0.000553229 0.517999 9.44318e-07 0.518333 3.01438e-07 0.518666-1.96928e-08 0.519-1.90735e-08Z" id="Path_54" fill="#4A4A4A" fill-rule="evenodd"/><g id="Group_5" transform="translate(5.073 0)"><rect x="0" y="0" rx="1" width="2.537" height="2.537" id="Rectangle_52" fill="#4A4A4A"/><rect x="0" y="0" rx="1" width="2.537" height="2.537" id="Rectangle_53" fill="#4A4A4A" transform="translate(3.006 0)"/><rect x="0" y="0" rx="1" width="2.537" height="2.537" id="Rectangle_54" fill="#4A4A4A" transform="translate(6.012 0)"/><rect x="0" y="0" rx="1" width="2.537" height="2.537" id="Rectangle_55" fill="#4A4A4A" transform="translate(9.018 0)"/><rect x="0" y="0" rx="1" width="2.537" height="2.537" id="Rectangle_56" fill="#4A4A4A" transform="translate(12.025 0)"/><rect x="0" y="0" rx="1" width="2.537" height="2.537" id="Rectangle_57" fill="#4A4A4A" transform="translate(15.031 0)"/><rect x="0" y="0" rx="1" width="2.537" height="2.537" id="Rectangle_58" fill="#4A4A4A" transform="translate(18.037 0)"/><rect x="0" y="0" rx="1" width="2.537" height="2.537" id="Rectangle_59" fill="#4A4A4A" transform="translate(21.042 0)"/><rect x="0" y="0" rx="1" width="2.537" height="2.537" id="Rectangle_60" fill="#4A4A4A" transform="translate(24.049 0)"/><rect x="0" y="0" rx="1" width="2.537" height="2.537" id="Rectangle_61" fill="#4A4A4A" transform="translate(27.055 0)"/><rect x="0" y="0" rx="1" width="2.537" height="2.537" id="Rectangle_62" fill="#4A4A4A" transform="translate(30.061 0)"/></g><path d="M0.52 0 3.8 0C4.08664 -1.11022e-16 4.319 0.232364 4.319 0.519L4.319 2.019C4.319 2.30564 4.08664 2.538 3.8 2.538L0.519 2.538C0.232364 2.538-1.73149e-06 2.30564-3.85976e-06 2.019-3.86472e-06 2.01834-2.5802e-06 2.01767-6.19904e-09 2.017L0 0.52C-0.000552285 0.233365 0.231364 0.000553229 0.517999 9.44318e-07 0.518333 3.01438e-07 0.518666-1.96928e-08 0.519-1.90735e-08Z" id="Path_55" fill="#4A4A4A" fill-rule="evenodd" transform="translate(38.234 0)"/></g><g id="Group_7" transform="translate(0.728 14.084)"><rect x="0" y="0" rx="1" width="2.537" height="2.537" id="Rectangle_63" fill="#4A4A4A"/><rect x="0" y="0" rx="1" width="2.537" height="2.537" id="Rectangle_64" fill="#4A4A4A" transform="translate(3.006 0)"/><rect x="0" y="0" rx="1" width="2.537" height="2.537" id="Rectangle_65" fill="#4A4A4A" transform="translate(6.012 0)"/><rect x="0" y="0" rx="1" width="2.537" height="2.537" id="Rectangle_66" fill="#4A4A4A" transform="translate(9.018 0)"/><path d="M0.519 0 14.981 0C15.2676 -1.11022e-16 15.5 0.232364 15.5 0.519L15.5 2.019C15.5 2.30564 15.2676 2.538 14.981 2.538L0.519 2.538C0.232364 2.538-4.37523e-07 2.30564-9.6959e-07 2.019-9.70209e-07 2.01867-6.49079e-07 2.01833-6.19888e-09 2.018L0 0.519C-1.11022e-16 0.232364 0.232364-6.19888e-09 0.519-6.19888e-09ZM16.489 0 18.363 0C18.6496 8.88178e-16 18.882 0.232364 18.882 0.519L18.882 2.019C18.882 2.30564 18.6496 2.538 18.363 2.538L16.489 2.538C16.2024 2.538 15.97 2.30564 15.97 2.019L15.97 0.519C15.97 0.232364 16.2024-6.19888e-09 16.489-6.19888e-09Z" id="Path_56" fill="#4A4A4A" fill-rule="evenodd" transform="translate(12.024 0)"/><rect x="0" y="0" rx="1" width="2.537" height="2.537" id="Rectangle_67" fill="#4A4A4A" transform="translate(31.376 0)"/><rect x="0" y="0" rx="1" width="2.537" height="2.537" id="Rectangle_68" fill="#4A4A4A" transform="translate(34.382 0)"/><rect x="0" y="0" rx="1" width="2.537" height="2.537" id="Rectangle_69" fill="#4A4A4A" transform="translate(40.018 0)"/><path d="M2.537 0 2.537 0.561C2.537 0.847636 2.30464 1.08 2.018 1.08L0.519 1.08C0.232364 1.08-6.19888e-09 0.847636-6.19888e-09 0.561L0 0Z" id="Path_57" fill="#4A4A4A" transform="matrix(-1 1.22465e-16 -1.22465e-16 -1 39.736 1.08)"/><path d="M2.537 0 2.537 0.561C2.537 0.847636 2.30464 1.08 2.018 1.08L0.519 1.08C0.232364 1.08-6.19888e-09 0.847636-6.19888e-09 0.561L0 0Z" id="Path_58" fill="#4A4A4A" transform="translate(37.2 1.456)"/></g><rect x="0" y="0" rx="0.564" width="42.273" height="1.127" id="Rectangle_70" fill="#4A4A4A" transform="translate(0.915 0.556)"/><rect x="0" y="0" rx="0.376" width="2.37" height="0.752" id="Rectangle_71" fill="#D8D8D8" opacity="0.136" transform="translate(1.949 0.744)"/><rect x="0" y="0" rx="0.376" width="2.37" height="0.752" id="Rectangle_72" fill="#D8D8D8" opacity="0.136" transform="translate(5.193 0.744)"/><rect x="0" y="0" rx="0.376" width="2.37" height="0.752" id="Rectangle_73" fill="#D8D8D8" opacity="0.136" transform="translate(7.688 0.744)"/><rect x="0" y="0" rx="0.376" width="2.37" height="0.752" id="Rectangle_74" fill="#D8D8D8" opacity="0.136" transform="translate(10.183 0.744)"/><rect x="0" y="0" rx="0.376" width="2.37" height="0.752" id="Rectangle_75" fill="#D8D8D8" opacity="0.136" transform="translate(12.679 0.744)"/><rect x="0" y="0" rx="0.376" width="2.37" height="0.752" id="Rectangle_76" fill="#D8D8D8" opacity="0.136" transform="translate(15.797 0.744)"/><rect x="0" y="0" rx="0.376" width="2.37" height="0.752" id="Rectangle_77" fill="#D8D8D8" opacity="0.136" transform="translate(18.292 0.744)"/><rect x="0" y="0" rx="0.376" width="2.37" height="0.752" id="Rectangle_78" fill="#D8D8D8" opacity="0.136" transform="translate(20.788 0.744)"/><rect x="0" y="0" rx="0.376" width="2.37" height="0.752" id="Rectangle_79" fill="#D8D8D8" opacity="0.136" transform="translate(23.283 0.744)"/><rect x="0" y="0" rx="0.376" width="2.37" height="0.752" id="Rectangle_80" fill="#D8D8D8" opacity="0.136" transform="translate(26.402 0.744)"/><rect x="0" y="0" rx="0.376" width="2.37" height="0.752" id="Rectangle_81" fill="#D8D8D8" opacity="0.136" transform="translate(28.897 0.744)"/><rect x="0" y="0" rx="0.376" width="2.37" height="0.752" id="Rectangle_82" fill="#D8D8D8" opacity="0.136" transform="translate(31.393 0.744)"/><rect x="0" y="0" rx="0.376" width="2.37" height="0.752" id="Rectangle_83" fill="#D8D8D8" opacity="0.136" transform="translate(34.512 0.744)"/><rect x="0" y="0" rx="0.376" width="2.37" height="0.752" id="Rectangle_84" fill="#D8D8D8" opacity="0.136" transform="translate(37.007 0.744)"/><rect x="0" y="0" rx="0.376" width="2.37" height="0.752" id="Rectangle_85" fill="#D8D8D8" opacity="0.136" transform="translate(39.502 0.744)"/></g><path d="M123.779 148.389C123.668 148.393 123.557 148.404 123.447 148.422 123.427 148.344 123.409 148.266 123.387 148.188 124.713 147.645 125.347 146.13 124.804 144.804 124.26 143.478 122.745 142.844 121.42 143.388 121.205 143.475 121.004 143.592 120.82 143.733 120.763 143.674 120.705 143.616 120.646 143.558 121.506 142.413 121.274 140.787 120.129 139.928 118.983 139.068 117.358 139.299 116.498 140.445 116.372 140.613 116.267 140.796 116.185 140.989 116.108 140.967 116.031 140.949 115.954 140.929 116.192 139.513 115.237 138.172 113.821 137.934 112.405 137.696 111.064 138.651 110.826 140.067 110.778 140.352 110.778 140.644 110.826 140.929 110.749 140.949 110.672 140.967 110.595 140.989 110.04 139.668 108.519 139.048 107.198 139.603 105.878 140.158 105.257 141.679 105.812 143 105.896 143.198 106.004 143.386 106.134 143.558 102.028 147.562 101.946 154.136 105.95 158.242 109.954 162.348 116.528 162.43 120.634 158.426 122.003 157.091 122.977 155.403 123.448 153.55 124.867 153.74 126.171 152.744 126.361 151.325 126.552 149.906 125.555 148.602 124.137 148.412 124.018 148.396 123.899 148.388 123.78 148.389" id="Path_59" fill="#44D860" fill-rule="evenodd" transform="translate(-51.054 -75.262)"/><path d="M83 113.389 103.779 113.389 103.779 103 83 103Z" id="Path_60" fill="#3ECC5F" fill-rule="evenodd" transform="translate(-41.443 -58.444)"/><path d="M123.389 108.944C124.107 108.944 124.689 108.362 124.689 107.644 124.689 106.926 124.107 106.344 123.389 106.344 123.333 106.346 123.278 106.352 123.223 106.361 123.213 106.322 123.204 106.283 123.193 106.244 123.856 105.968 124.169 105.207 123.893 104.544 123.691 104.06 123.218 103.744 122.693 103.744 122.409 103.745 122.134 103.839 121.91 104.013 121.881 103.984 121.852 103.955 121.823 103.926 121.993 103.703 122.085 103.43 122.086 103.15 122.082 102.432 121.497 101.853 120.779 101.857 120.263 101.86 119.798 102.168 119.593 102.641 116.832 101.862 113.962 103.47 113.183 106.231 112.404 108.992 114.012 111.862 116.773 112.641 117.695 112.901 118.671 112.901 119.593 112.641 119.878 113.3 120.644 113.603 121.302 113.318 121.776 113.113 122.083 112.648 122.086 112.132 122.085 111.852 121.993 111.579 121.823 111.356 121.852 111.327 121.881 111.298 121.91 111.269 122.134 111.443 122.409 111.537 122.693 111.538 123.411 111.538 123.993 110.956 123.993 110.238 123.993 109.713 123.677 109.24 123.193 109.038 123.204 109 123.213 108.96 123.223 108.921 123.278 108.93 123.333 108.936 123.389 108.938" id="Path_61" fill="#44D860" fill-rule="evenodd" transform="translate(-55.859 -57.894)"/><path d="M141.8 38.745C141.714 38.7441 141.629 38.7354 141.545 38.719 141.461 38.7027 141.38 38.6782 141.301 38.646 141.223 38.6135 141.148 38.5736 141.077 38.527 141.007 38.4777 140.94 38.424 140.877 38.366 140.818 38.304 140.764 38.2371 140.716 38.166 140.573 37.9526 140.497 37.7011 140.498 37.444 140.499 37.3584 140.508 37.273 140.524 37.189 140.541 37.1058 140.565 37.0241 140.596 36.945 140.629 36.8671 140.669 36.7924 140.716 36.722 140.81 36.5795 140.932 36.4577 141.074 36.364 141.145 36.3174 141.22 36.2775 141.298 36.245 141.377 36.2128 141.458 36.1883 141.542 36.172 141.71 36.1356 141.883 36.1356 142.051 36.172 142.218 36.2038 142.378 36.2691 142.519 36.364 142.589 36.4132 142.656 36.467 142.719 36.525 142.777 36.588 142.831 36.6548 142.88 36.725 142.927 36.7953 142.967 36.87 143 36.948 143.065 37.1069 143.098 37.2765 143.1 37.448 143.099 37.7921 142.963 38.1219 142.721 38.367 142.658 38.425 142.591 38.4787 142.521 38.528 142.451 38.5746 142.376 38.6144 142.298 38.647 142.139 38.7122 141.97 38.7462 141.798 38.747M152.187 38.098C151.843 38.0959 151.513 37.96 151.267 37.719 151.209 37.6559 151.155 37.5891 151.106 37.519 150.963 37.3056 150.887 37.0541 150.888 36.797 150.89 36.4531 151.026 36.1236 151.267 35.878 151.33 35.82 151.397 35.7663 151.467 35.717 151.538 35.6704 151.613 35.6306 151.691 35.598 151.77 35.5658 151.851 35.5413 151.935 35.525 152.103 35.4886 152.276 35.4886 152.444 35.525 152.611 35.5568 152.771 35.6221 152.912 35.717 152.982 35.7663 153.049 35.82 153.112 35.878 153.353 36.1236 153.489 36.4531 153.491 36.797 153.49 36.8826 153.481 36.9679 153.465 37.052 153.449 37.1355 153.424 37.2172 153.392 37.296 153.357 37.373 153.318 37.4475 153.273 37.519 153.224 37.5892 153.17 37.656 153.112 37.719 153.049 37.777 152.982 37.8307 152.912 37.88 152.698 38.0227 152.447 38.0986 152.19 38.098" id="Path_62" fill-rule="evenodd" transform="translate(-69.074 -26.006)"/></g><g id="React-icon" transform="translate(906.3 541.56)"><path d="M263.668 117.179C263.668 111.352 256.368 105.829 245.181 102.404 247.763 91.004 246.615 81.927 241.559 79.022 240.334 78.3359 238.947 77.9906 237.543 78.022L237.543 82.022C238.253 81.9999 238.957 82.1604 239.587 82.488 242.026 83.888 243.087 89.212 242.259 96.062 242.059 97.747 241.739 99.523 241.345 101.334 237.597 100.431 233.793 99.7781 229.959 99.38 227.675 96.2291 225.183 93.2341 222.5 90.415 228.345 84.982 233.832 82.005 237.562 82.005L237.562 78 237.562 78C232.631 78 226.176 81.514 219.649 87.611 213.122 81.55 206.667 78.072 201.736 78.072L201.736 82.072C205.448 82.072 210.952 85.031 216.798 90.428 214.128 93.2374 211.654 96.2267 209.393 99.375 205.552 99.7687 201.743 100.428 197.993 101.347 197.581 99.554 197.276 97.815 197.061 96.147 196.218 89.297 197.261 83.972 199.679 82.555 200.312 82.2171 201.024 82.0562 201.741 82.089L201.741 78.089 201.741 78.089C200.326 78.0579 198.927 78.403 197.689 79.089 192.65 81.989 191.521 91.049 194.121 102.417 182.968 105.86 175.706 111.364 175.706 117.174 175.706 123.002 183.006 128.524 194.193 131.949 191.611 143.349 192.759 152.426 197.815 155.331 199.046 156.019 200.439 156.365 201.849 156.331 206.78 156.331 213.235 152.817 219.762 146.72 226.289 152.781 232.744 156.259 237.675 156.259 239.09 156.29 240.489 155.945 241.727 155.259 246.766 152.359 247.895 143.299 245.295 131.931 256.406 128.511 263.668 122.988 263.668 117.179ZM240.322 105.219C239.659 107.532 238.834 109.919 237.901 112.302 237.166 110.868 236.395 109.433 235.552 108.002 234.727 106.568 233.852 105.169 232.97 103.802 235.517 104.179 237.974 104.645 240.323 105.219ZM232.11 124.319C230.71 126.74 229.277 129.035 227.789 131.169 225.117 131.402 222.41 131.528 219.689 131.528 216.981 131.528 214.274 131.402 211.62 131.187 210.132 129.054 208.686 126.782 207.281 124.373 205.918 122.024 204.675 119.646 203.551 117.237 204.663 114.837 205.918 112.432 207.263 110.083 208.663 107.662 210.096 105.367 211.584 103.233 214.256 103 216.963 102.874 219.684 102.874 222.392 102.874 225.099 103 227.753 103.215 229.241 105.348 230.687 107.62 232.092 110.029 233.455 112.378 234.698 114.756 235.822 117.165 234.692 119.564 233.455 121.966 232.11 124.315ZM237.902 121.988C238.87 124.388 239.695 126.793 240.376 129.124 238.027 129.698 235.553 130.182 232.989 130.558 233.868 129.177 234.746 127.758 235.571 126.308 236.4 124.871 237.167 123.419 237.9 121.984ZM219.72 141.116C217.961 139.29 216.297 137.375 214.735 135.378 216.349 135.45 217.998 135.504 219.666 135.504 221.351 135.504 223.019 135.468 224.651 135.378 223.112 137.378 221.466 139.294 219.72 141.116ZM206.38 130.555C203.834 130.178 201.38 129.712 199.028 129.138 199.691 126.825 200.516 124.438 201.449 122.055 202.184 123.489 202.955 124.924 203.798 126.355 204.641 127.786 205.5 129.192 206.38 130.555ZM219.63 93.241C221.389 95.0669 223.053 96.9821 224.615 98.979 223.001 98.907 221.352 98.853 219.684 98.853 217.998 98.853 216.331 98.889 214.699 98.979 216.238 96.9788 217.884 95.0634 219.63 93.241ZM206.362 103.8C205.483 105.181 204.605 106.6 203.78 108.05 202.955 109.484 202.18 110.919 201.449 112.35 200.481 109.95 199.656 107.545 198.975 105.214 201.323 104.663 203.8 104.179 206.362 103.8ZM190.135 126.249C183.787 123.541 179.681 119.991 179.681 117.176 179.681 114.361 183.787 110.793 190.135 108.103 191.677 107.44 193.363 106.848 195.102 106.292 196.199 110.019 197.547 113.667 199.136 117.212 197.563 120.739 196.233 124.37 195.155 128.078 193.38 127.525 191.694 126.915 190.134 126.252ZM199.782 151.872C197.343 150.472 196.282 145.148 197.11 138.298 197.31 136.612 197.63 134.837 198.024 133.026 201.772 133.929 205.576 134.582 209.41 134.98 211.694 138.131 214.186 141.126 216.869 143.945 211.024 149.378 205.537 152.355 201.807 152.355 201.102 152.364 200.407 152.199 199.781 151.875ZM242.314 138.209C243.157 145.059 242.114 150.384 239.696 151.801 239.063 152.139 238.351 152.3 237.634 152.267 233.922 152.267 228.418 149.308 222.572 143.911 225.242 141.102 227.716 138.112 229.977 134.964 233.818 134.57 237.627 133.911 241.377 132.992 241.781 134.714 242.093 136.457 242.313 138.212ZM249.214 126.249C247.672 126.912 245.986 127.504 244.247 128.06 243.15 124.333 241.802 120.685 240.213 117.14 241.786 113.613 243.116 109.982 244.194 106.274 245.969 106.83 247.655 107.439 249.233 108.103 255.581 110.811 259.687 114.361 259.687 117.176 259.67 119.994 255.564 123.562 249.216 126.252Z" id="Path_330" fill="#61DAFB"/><path d="" id="Path_331" fill="#61DAFB" transform="translate(-119.082 -0.328)"/><circle cx="8.194" cy="8.194" r="8.194" id="Ellipse_112" fill="#61DAFB" transform="translate(211.472 108.984)"/><path d="" id="Path_332" fill="#61DAFB" transform="translate(-282.975 -0.082)"/></g></g></svg>